<?xml version="1.0" encoding="UTF-8" standalone="no"?>
<!DOCTYPE svg PUBLIC "-//W3C//DTD SVG 1.1//EN"
 "http://www.w3.org/Graphics/SVG/1.1/DTD/svg11.dtd">
<!-- Generated by graphviz version 12.0.0 (20240704.0754)
 -->
<!-- Pages: 1 -->
<svg width="694pt" height="155pt"
 viewBox="0.00 0.00 694.00 155.00" xmlns="http://www.w3.org/2000/svg" xmlns:xlink="http://www.w3.org/1999/xlink">
<g id="graph0" class="graph" transform="scale(1 1) rotate(0) translate(4 151)">
<polygon fill="white" stroke="none" points="-4,4 -4,-151 690,-151 690,4 -4,4"/>
<!-- 1374393671104 -->
<g id="node1" class="node">
<title>1374393671104</title>
<path fill="pink" stroke="pink" d="M12,-0.5C12,-0.5 157.75,-0.5 157.75,-0.5 163.75,-0.5 169.75,-6.5 169.75,-12.5 169.75,-12.5 169.75,-24.5 169.75,-24.5 169.75,-30.5 163.75,-36.5 157.75,-36.5 157.75,-36.5 12,-36.5 12,-36.5 6,-36.5 0,-30.5 0,-24.5 0,-24.5 0,-12.5 0,-12.5 0,-6.5 6,-0.5 12,-0.5"/>
<text text-anchor="middle" x="84.88" y="-13.7" font-family="Times,serif" font-size="14.00">deployment/the&#45;deployment</text>
</g>
<!-- 1374393671168 -->
<g id="node2" class="node">
<title>1374393671168</title>
<path fill="lightblue" stroke="lightblue" d="M465.25,-0.5C465.25,-0.5 674,-0.5 674,-0.5 680,-0.5 686,-6.5 686,-12.5 686,-12.5 686,-24.5 686,-24.5 686,-30.5 680,-36.5 674,-36.5 674,-36.5 465.25,-36.5 465.25,-36.5 459.25,-36.5 453.25,-30.5 453.25,-24.5 453.25,-24.5 453.25,-12.5 453.25,-12.5 453.25,-6.5 459.25,-0.5 465.25,-0.5"/>
<text text-anchor="middle" x="569.62" y="-13.7" font-family="Times,serif" font-size="14.00">examples/helloWorld/deployment.yaml</text>
</g>
<!-- 1374393671104&#45;&gt;1374393671168 -->
<g id="edge1" class="edge">
<title>1374393671104&#45;&gt;1374393671168</title>
<path fill="none" stroke="black" d="M170.24,-18.5C245.25,-18.5 356,-18.5 441.7,-18.5"/>
<polygon fill="black" stroke="black" points="441.58,-22 451.58,-18.5 441.58,-15 441.58,-22"/>
<text text-anchor="middle" x="311.5" y="-21.7" font-family="Times,serif" font-size="14.00">https://github.com/kubernetes&#45;sigs/kustomize</text>
</g>
<!-- 1374393670848 -->
<g id="node3" class="node">
<title>1374393670848</title>
<path fill="lightgray" stroke="lightgray" d="M35.25,-55.5C35.25,-55.5 134.5,-55.5 134.5,-55.5 140.5,-55.5 146.5,-61.5 146.5,-67.5 146.5,-67.5 146.5,-79.5 146.5,-79.5 146.5,-85.5 140.5,-91.5 134.5,-91.5 134.5,-91.5 35.25,-91.5 35.25,-91.5 29.25,-91.5 23.25,-85.5 23.25,-79.5 23.25,-79.5 23.25,-67.5 23.25,-67.5 23.25,-61.5 29.25,-55.5 35.25,-55.5"/>
<text text-anchor="middle" x="84.88" y="-68.7" font-family="Times,serif" font-size="14.00">configmap/the&#45;map</text>
</g>
<!-- 1374393670912 -->
<g id="node4" class="node">
<title>1374393670912</title>
<path fill="lightblue" stroke="lightblue" d="M467.5,-55.5C467.5,-55.5 671.75,-55.5 671.75,-55.5 677.75,-55.5 683.75,-61.5 683.75,-67.5 683.75,-67.5 683.75,-79.5 683.75,-79.5 683.75,-85.5 677.75,-91.5 671.75,-91.5 671.75,-91.5 467.5,-91.5 467.5,-91.5 461.5,-91.5 455.5,-85.5 455.5,-79.5 455.5,-79.5 455.5,-67.5 455.5,-67.5 455.5,-61.5 461.5,-55.5 467.5,-55.5"/>
<text text-anchor="middle" x="569.62" y="-68.7" font-family="Times,serif" font-size="14.00">examples/helloWorld/configMap.yaml</text>
</g>
<!-- 1374393670848&#45;&gt;1374393670912 -->
<g id="edge2" class="edge">
<title>1374393670848&#45;&gt;1374393670912</title>
<path fill="none" stroke="black" d="M146.53,-73.5C220.75,-73.5 348.31,-73.5 443.82,-73.5"/>
<polygon fill="black" stroke="black" points="443.79,-77 453.79,-73.5 443.79,-70 443.79,-77"/>
<text text-anchor="middle" x="311.5" y="-76.7" font-family="Times,serif" font-size="14.00">https://github.com/kubernetes&#45;sigs/kustomize</text>
</g>
<!-- 1374393670976 -->
<g id="node5" class="node">
<title>1374393670976</title>
<path fill="lightgreen" stroke="lightgreen" d="M38.25,-110.5C38.25,-110.5 131.5,-110.5 131.5,-110.5 137.5,-110.5 143.5,-116.5 143.5,-122.5 143.5,-122.5 143.5,-134.5 143.5,-134.5 143.5,-140.5 137.5,-146.5 131.5,-146.5 131.5,-146.5 38.25,-146.5 38.25,-146.5 32.25,-146.5 26.25,-140.5 26.25,-134.5 26.25,-134.5 26.25,-122.5 26.25,-122.5 26.25,-116.5 32.25,-110.5 38.25,-110.5"/>
<text text-anchor="middle" x="84.88" y="-123.7" font-family="Times,serif" font-size="14.00">service/the&#45;service</text>
</g>
<!-- 1374393671040 -->
<g id="node6" class="node">
<title>1374393671040</title>
<path fill="lightblue" stroke="lightblue" d="M478.38,-110.5C478.38,-110.5 660.88,-110.5 660.88,-110.5 666.88,-110.5 672.88,-116.5 672.88,-122.5 672.88,-122.5 672.88,-134.5 672.88,-134.5 672.88,-140.5 666.88,-146.5 660.88,-146.5 660.88,-146.5 478.38,-146.5 478.38,-146.5 472.38,-146.5 466.38,-140.5 466.38,-134.5 466.38,-134.5 466.38,-122.5 466.38,-122.5 466.38,-116.5 472.38,-110.5 478.38,-110.5"/>
<text text-anchor="middle" x="569.62" y="-123.7" font-family="Times,serif" font-size="14.00">examples/helloWorld/service.yaml</text>
</g>
<!-- 1374393670976&#45;&gt;1374393671040 -->
<g id="edge3" class="edge">
<title>1374393670976&#45;&gt;1374393671040</title>
<path fill="none" stroke="black" d="M143.63,-128.5C220.18,-128.5 356.96,-128.5 454.67,-128.5"/>
<polygon fill="black" stroke="black" points="454.58,-132 464.58,-128.5 454.58,-125 454.58,-132"/>
<text text-anchor="middle" x="311.5" y="-131.7" font-family="Times,serif" font-size="14.00">https://github.com/kubernetes&#45;sigs/kustomize</text>
</g>
</g>
</svg>
