<?xml version="1.0" encoding="UTF-8" standalone="no"?>
<!DOCTYPE svg PUBLIC "-//W3C//DTD SVG 1.1//EN"
 "http://www.w3.org/Graphics/SVG/1.1/DTD/svg11.dtd">
<!-- Generated by graphviz version 12.0.0 (20240704.0754)
 -->
<!-- Pages: 1 -->
<svg width="760pt" height="155pt"
 viewBox="0.00 0.00 760.00 155.00" xmlns="http://www.w3.org/2000/svg" xmlns:xlink="http://www.w3.org/1999/xlink">
<g id="graph0" class="graph" transform="scale(1 1) rotate(0) translate(4 151)">
<polygon fill="white" stroke="none" points="-4,4 -4,-151 756,-151 756,4 -4,4"/>
<!-- 1374393678912 -->
<g id="node1" class="node">
<title>1374393678912</title>
<path fill="lightgray" stroke="lightgray" d="M35.25,-0.5C35.25,-0.5 134.5,-0.5 134.5,-0.5 140.5,-0.5 146.5,-6.5 146.5,-12.5 146.5,-12.5 146.5,-24.5 146.5,-24.5 146.5,-30.5 140.5,-36.5 134.5,-36.5 134.5,-36.5 35.25,-36.5 35.25,-36.5 29.25,-36.5 23.25,-30.5 23.25,-24.5 23.25,-24.5 23.25,-12.5 23.25,-12.5 23.25,-6.5 29.25,-0.5 35.25,-0.5"/>
<text text-anchor="middle" x="84.88" y="-13.7" font-family="Times,serif" font-size="14.00">configmap/the&#45;map</text>
</g>
<!-- 1374393679040 -->
<g id="node2" class="node">
<title>1374393679040</title>
<path fill="lightblue" stroke="lightblue" d="M533.5,-0.5C533.5,-0.5 737.75,-0.5 737.75,-0.5 743.75,-0.5 749.75,-6.5 749.75,-12.5 749.75,-12.5 749.75,-24.5 749.75,-24.5 749.75,-30.5 743.75,-36.5 737.75,-36.5 737.75,-36.5 533.5,-36.5 533.5,-36.5 527.5,-36.5 521.5,-30.5 521.5,-24.5 521.5,-24.5 521.5,-12.5 521.5,-12.5 521.5,-6.5 527.5,-0.5 533.5,-0.5"/>
<text text-anchor="middle" x="635.62" y="-13.7" font-family="Times,serif" font-size="14.00">examples/helloWorld/configMap.yaml</text>
</g>
<!-- 1374393678912&#45;&gt;1374393679040 -->
<g id="edge1" class="edge">
<title>1374393678912&#45;&gt;1374393679040</title>
<path fill="none" stroke="black" d="M146.96,-18.5C234.2,-18.5 396.43,-18.5 509.72,-18.5"/>
<polygon fill="black" stroke="black" points="509.7,-22 519.7,-18.5 509.7,-15 509.7,-22"/>
<text text-anchor="middle" x="344.5" y="-21.7" font-family="Times,serif" font-size="14.00">https://github.com/kubernetes&#45;sigs/kustomize (ref v1.0.6)</text>
</g>
<!-- 1374393679104 -->
<g id="node3" class="node">
<title>1374393679104</title>
<path fill="lightgreen" stroke="lightgreen" d="M38.25,-55.5C38.25,-55.5 131.5,-55.5 131.5,-55.5 137.5,-55.5 143.5,-61.5 143.5,-67.5 143.5,-67.5 143.5,-79.5 143.5,-79.5 143.5,-85.5 137.5,-91.5 131.5,-91.5 131.5,-91.5 38.25,-91.5 38.25,-91.5 32.25,-91.5 26.25,-85.5 26.25,-79.5 26.25,-79.5 26.25,-67.5 26.25,-67.5 26.25,-61.5 32.25,-55.5 38.25,-55.5"/>
<text text-anchor="middle" x="84.88" y="-68.7" font-family="Times,serif" font-size="14.00">service/the&#45;service</text>
</g>
<!-- 1374393679232 -->
<g id="node4" class="node">
<title>1374393679232</title>
<path fill="lightblue" stroke="lightblue" d="M544.38,-55.5C544.38,-55.5 726.88,-55.5 726.88,-55.5 732.88,-55.5 738.88,-61.5 738.88,-67.5 738.88,-67.5 738.88,-79.5 738.88,-79.5 738.88,-85.5 732.88,-91.5 726.88,-91.5 726.88,-91.5 544.38,-91.5 544.38,-91.5 538.38,-91.5 532.38,-85.5 532.38,-79.5 532.38,-79.5 532.38,-67.5 532.38,-67.5 532.38,-61.5 538.38,-55.5 544.38,-55.5"/>
<text text-anchor="middle" x="635.62" y="-68.7" font-family="Times,serif" font-size="14.00">examples/helloWorld/service.yaml</text>
</g>
<!-- 1374393679104&#45;&gt;1374393679232 -->
<g id="edge2" class="edge">
<title>1374393679104&#45;&gt;1374393679232</title>
<path fill="none" stroke="black" d="M143.82,-73.5C233.08,-73.5 405.88,-73.5 520.77,-73.5"/>
<polygon fill="black" stroke="black" points="520.53,-77 530.53,-73.5 520.53,-70 520.53,-77"/>
<text text-anchor="middle" x="344.5" y="-76.7" font-family="Times,serif" font-size="14.00">https://github.com/kubernetes&#45;sigs/kustomize (ref v1.0.6)</text>
</g>
<!-- 1374393679296 -->
<g id="node5" class="node">
<title>1374393679296</title>
<path fill="pink" stroke="pink" d="M12,-110.5C12,-110.5 157.75,-110.5 157.75,-110.5 163.75,-110.5 169.75,-116.5 169.75,-122.5 169.75,-122.5 169.75,-134.5 169.75,-134.5 169.75,-140.5 163.75,-146.5 157.75,-146.5 157.75,-146.5 12,-146.5 12,-146.5 6,-146.5 0,-140.5 0,-134.5 0,-134.5 0,-122.5 0,-122.5 0,-116.5 6,-110.5 12,-110.5"/>
<text text-anchor="middle" x="84.88" y="-123.7" font-family="Times,serif" font-size="14.00">deployment/the&#45;deployment</text>
</g>
<!-- 1374393679424 -->
<g id="node6" class="node">
<title>1374393679424</title>
<path fill="lightblue" stroke="lightblue" d="M531.25,-110.5C531.25,-110.5 740,-110.5 740,-110.5 746,-110.5 752,-116.5 752,-122.5 752,-122.5 752,-134.5 752,-134.5 752,-140.5 746,-146.5 740,-146.5 740,-146.5 531.25,-146.5 531.25,-146.5 525.25,-146.5 519.25,-140.5 519.25,-134.5 519.25,-134.5 519.25,-122.5 519.25,-122.5 519.25,-116.5 525.25,-110.5 531.25,-110.5"/>
<text text-anchor="middle" x="635.62" y="-123.7" font-family="Times,serif" font-size="14.00">examples/helloWorld/deployment.yaml</text>
</g>
<!-- 1374393679296&#45;&gt;1374393679424 -->
<g id="edge3" class="edge">
<title>1374393679296&#45;&gt;1374393679424</title>
<path fill="none" stroke="black" d="M170.11,-128.5C260.03,-128.5 403.54,-128.5 507.27,-128.5"/>
<polygon fill="black" stroke="black" points="507.25,-132 517.25,-128.5 507.25,-125 507.25,-132"/>
<text text-anchor="middle" x="344.5" y="-131.7" font-family="Times,serif" font-size="14.00">https://github.com/kubernetes&#45;sigs/kustomize (ref v1.0.6)</text>
</g>
</g>
</svg>
