<?xml version="1.0" encoding="UTF-8" standalone="no"?><!DOCTYPE svg PUBLIC "-//W3C//DTD SVG 1.1//EN" "http://www.w3.org/Graphics/SVG/1.1/DTD/svg11.dtd"><!-- Generated by graphviz version 2.40.1 (20161225.0304)
 --><!-- Title: %0 Pages: 1 --><svg xmlns="http://www.w3.org/2000/svg" xmlns:xlink="http://www.w3.org/1999/xlink" width="1806pt" height="135pt" viewBox="0.00 0.00 1805.90 134.80">
<g id="graph0" class="graph" transform="scale(1 1) rotate(0) translate(4 130.8)">
<title>%0</title>
<polygon fill="#ffffff" stroke="transparent" points="-4,4 -4,-130.8 1801.904,-130.8 1801.904,4 -4,4"/>
<!-- 1374432352512 -->
<g id="node1" class="node">
<title>1374432352512</title>
<path fill="#add8e6" stroke="#add8e6" d="M116.3923,-.5C116.3923,-.5 450.1169,-.5 450.1169,-.5 456.1169,-.5 462.1169,-6.5 462.1169,-12.5 462.1169,-12.5 462.1169,-24.5 462.1169,-24.5 462.1169,-30.5 456.1169,-36.5 450.1169,-36.5 450.1169,-36.5 116.3923,-36.5 116.3923,-36.5 110.3923,-36.5 104.3923,-30.5 104.3923,-24.5 104.3923,-24.5 104.3923,-12.5 104.3923,-12.5 104.3923,-6.5 110.3923,-.5 116.3923,-.5"/>
<text text-anchor="middle" x="283.2546" y="-14.3" font-family="Times,serif" font-size="14.00" fill="#000000">manifests/prometheus-roleBindingSpecificNamespaces.yaml</text>
</g>
<!-- 1374432352576 -->
<g id="node2" class="node">
<title>1374432352576</title>
<path fill="#00ff00" stroke="#00ff00" d="M12,-90.3C12,-90.3 236.5092,-90.3 236.5092,-90.3 242.5092,-90.3 248.5092,-96.3 248.5092,-102.3 248.5092,-102.3 248.5092,-114.3 248.5092,-114.3 248.5092,-120.3 242.5092,-126.3 236.5092,-126.3 236.5092,-126.3 12,-126.3 12,-126.3 6,-126.3 0,-120.3 0,-114.3 0,-114.3 0,-102.3 0,-102.3 0,-96.3 6,-90.3 12,-90.3"/>
<text text-anchor="middle" x="124.2546" y="-104.1" font-family="Times,serif" font-size="14.00" fill="#000000">kube-system/rolebinding/prometheus-k8s</text>
</g>
<!-- 1374432352576&#45;&gt;1374432352512 -->
<g id="edge1" class="edge">
<title>1374432352576-&gt;1374432352512</title>
<path fill="none" stroke="#000000" d="M119.5403,-90.0708C117.7619,-78.764 117.7644,-64.6111 125.6052,-55 130.4997,-49.0005 140.5953,-43.8923 153.4253,-39.5699"/>
<polygon fill="#000000" stroke="#000000" points="154.6857,-42.8441 163.2155,-36.5598 152.6285,-36.1532 154.6857,-42.8441"/>
<text text-anchor="middle" x="282.5793" y="-59.2" font-family="Times,serif" font-size="14.00" fill="#000000">git@github.com:prometheus-operator/kube-prometheus</text>
</g>
<!-- 1374432352640 -->
<g id="node3" class="node">
<title>1374432352640</title>
<path fill="#00ff00" stroke="#00ff00" d="M666.8765,-90.3C666.8765,-90.3 963.6327,-90.3 963.6327,-90.3 969.6327,-90.3 975.6327,-96.3 975.6327,-102.3 975.6327,-102.3 975.6327,-114.3 975.6327,-114.3 975.6327,-120.3 969.6327,-126.3 963.6327,-126.3 963.6327,-126.3 666.8765,-126.3 666.8765,-126.3 660.8765,-126.3 654.8765,-120.3 654.8765,-114.3 654.8765,-114.3 654.8765,-102.3 654.8765,-102.3 654.8765,-96.3 660.8765,-90.3 666.8765,-90.3"/>
<text text-anchor="middle" x="815.2546" y="-104.1" font-family="Times,serif" font-size="14.00" fill="#000000">kube-system/rolebinding/resource-metrics-auth-reader</text>
</g>
<!-- 1374432352704 -->
<g id="node4" class="node">
<title>1374432352704</title>
<path fill="#add8e6" stroke="#add8e6" d="M649.9435,-.5C649.9435,-.5 980.5657,-.5 980.5657,-.5 986.5657,-.5 992.5657,-6.5 992.5657,-12.5 992.5657,-12.5 992.5657,-24.5 992.5657,-24.5 992.5657,-30.5 986.5657,-36.5 980.5657,-36.5 980.5657,-36.5 649.9435,-36.5 649.9435,-36.5 643.9435,-36.5 637.9435,-30.5 637.9435,-24.5 637.9435,-24.5 637.9435,-12.5 637.9435,-12.5 637.9435,-6.5 643.9435,-.5 649.9435,-.5"/>
<text text-anchor="middle" x="815.2546" y="-14.3" font-family="Times,serif" font-size="14.00" fill="#000000">manifests/prometheusAdapter-roleBindingAuthReader.yaml</text>
</g>
<!-- 1374432352640&#45;&gt;1374432352704 -->
<g id="edge2" class="edge">
<title>1374432352640-&gt;1374432352704</title>
<path fill="none" stroke="#000000" d="M815.2546,-90.1276C815.2546,-77.7124 815.2546,-61.0106 815.2546,-46.8579"/>
<polygon fill="#000000" stroke="#000000" points="818.7547,-46.6453 815.2546,-36.6453 811.7547,-46.6454 818.7547,-46.6453"/>
<text text-anchor="middle" x="971.5793" y="-59.2" font-family="Times,serif" font-size="14.00" fill="#000000">git@github.com:prometheus-operator/kube-prometheus</text>
</g>
<!-- 1374432352192 -->
<g id="node5" class="node">
<title>1374432352192</title>
<path fill="#ffc0cb" stroke="#ffc0cb" d="M1084.3352,-90.3C1084.3352,-90.3 1234.174,-90.3 1234.174,-90.3 1240.174,-90.3 1246.174,-96.3 1246.174,-102.3 1246.174,-102.3 1246.174,-114.3 1246.174,-114.3 1246.174,-120.3 1240.174,-126.3 1234.174,-126.3 1234.174,-126.3 1084.3352,-126.3 1084.3352,-126.3 1078.3352,-126.3 1072.3352,-120.3 1072.3352,-114.3 1072.3352,-114.3 1072.3352,-102.3 1072.3352,-102.3 1072.3352,-96.3 1078.3352,-90.3 1084.3352,-90.3"/>
<text text-anchor="middle" x="1159.2546" y="-104.1" font-family="Times,serif" font-size="14.00" fill="#000000">default/role/prometheus-k8s</text>
</g>
<!-- 1374432352320 -->
<g id="node6" class="node">
<title>1374432352320</title>
<path fill="#add8e6" stroke="#add8e6" d="M1022.9512,-.5C1022.9512,-.5 1311.558,-.5 1311.558,-.5 1317.558,-.5 1323.558,-6.5 1323.558,-12.5 1323.558,-12.5 1323.558,-24.5 1323.558,-24.5 1323.558,-30.5 1317.558,-36.5 1311.558,-36.5 1311.558,-36.5 1022.9512,-36.5 1022.9512,-36.5 1016.9512,-36.5 1010.9512,-30.5 1010.9512,-24.5 1010.9512,-24.5 1010.9512,-12.5 1010.9512,-12.5 1010.9512,-6.5 1016.9512,-.5 1022.9512,-.5"/>
<text text-anchor="middle" x="1167.2546" y="-14.3" font-family="Times,serif" font-size="14.00" fill="#000000">manifests/prometheus-roleSpecificNamespaces.yaml</text>
</g>
<!-- 1374432352192&#45;&gt;1374432352320 -->
<g id="edge3" class="edge">
<title>1374432352192-&gt;1374432352320</title>
<path fill="none" stroke="#000000" d="M1159.0201,-90.0007C1159.0629,-79.6947 1159.4087,-66.6016 1160.6052,-55 1160.8866,-52.271 1161.2585,-49.4396 1161.6829,-46.6156"/>
<polygon fill="#000000" stroke="#000000" points="1165.1575,-47.0602 1163.3826,-36.6151 1158.2564,-45.8872 1165.1575,-47.0602"/>
<text text-anchor="middle" x="1317.5793" y="-59.2" font-family="Times,serif" font-size="14.00" fill="#000000">git@github.com:prometheus-operator/kube-prometheus</text>
</g>
<!-- 1374432352384 -->
<g id="node7" class="node">
<title>1374432352384</title>
<path fill="#00ff00" stroke="#00ff00" d="M1404.3906,-90.3C1404.3906,-90.3 1586.1186,-90.3 1586.1186,-90.3 1592.1186,-90.3 1598.1186,-96.3 1598.1186,-102.3 1598.1186,-102.3 1598.1186,-114.3 1598.1186,-114.3 1598.1186,-120.3 1592.1186,-126.3 1586.1186,-126.3 1586.1186,-126.3 1404.3906,-126.3 1404.3906,-126.3 1398.3906,-126.3 1392.3906,-120.3 1392.3906,-114.3 1392.3906,-114.3 1392.3906,-102.3 1392.3906,-102.3 1392.3906,-96.3 1398.3906,-90.3 1404.3906,-90.3"/>
<text text-anchor="middle" x="1495.2546" y="-104.1" font-family="Times,serif" font-size="14.00" fill="#000000">kube-system/role/prometheus-k8s</text>
</g>
<!-- 1374432352384&#45;&gt;1374432352320 -->
<g id="edge4" class="edge">
<title>1374432352384-&gt;1374432352320</title>
<path fill="none" stroke="#000000" d="M1492.5561,-90.0888C1489.7936,-78.1859 1484.2605,-63.3499 1473.2546,-55 1461.092,-45.7726 1398.9445,-37.5175 1333.8027,-31.2021"/>
<polygon fill="#000000" stroke="#000000" points="1334.0401,-27.7089 1323.7532,-30.245 1333.3763,-34.6774 1334.0401,-27.7089"/>
<text text-anchor="middle" x="1641.5793" y="-59.2" font-family="Times,serif" font-size="14.00" fill="#000000">git@github.com:prometheus-operator/kube-prometheus</text>
</g>
<!-- 1374432352448 -->
<g id="node8" class="node">
<title>1374432352448</title>
<path fill="#ffc0cb" stroke="#ffc0cb" d="M363.9446,-90.3C363.9446,-90.3 556.5646,-90.3 556.5646,-90.3 562.5646,-90.3 568.5646,-96.3 568.5646,-102.3 568.5646,-102.3 568.5646,-114.3 568.5646,-114.3 568.5646,-120.3 562.5646,-126.3 556.5646,-126.3 556.5646,-126.3 363.9446,-126.3 363.9446,-126.3 357.9446,-126.3 351.9446,-120.3 351.9446,-114.3 351.9446,-114.3 351.9446,-102.3 351.9446,-102.3 351.9446,-96.3 357.9446,-90.3 363.9446,-90.3"/>
<text text-anchor="middle" x="460.2546" y="-104.1" font-family="Times,serif" font-size="14.00" fill="#000000">default/rolebinding/prometheus-k8s</text>
</g>
<!-- 1374432352448&#45;&gt;1374432352512 -->
<g id="edge5" class="edge">
<title>1374432352448-&gt;1374432352512</title>
<path fill="none" stroke="#000000" d="M457.1821,-90.2195C454.2636,-78.5304 448.6972,-63.8908 438.2546,-55 431.304,-49.0823 417.6248,-43.7888 401.1511,-39.1912"/>
<polygon fill="#000000" stroke="#000000" points="401.7196,-35.7219 391.1584,-36.5652 399.9404,-42.492 401.7196,-35.7219"/>
<text text-anchor="middle" x="607.5793" y="-59.2" font-family="Times,serif" font-size="14.00" fill="#000000">git@github.com:prometheus-operator/kube-prometheus</text>
</g>
</g>
</svg>