<?xml version="1.0" encoding="UTF-8" standalone="no"?>
<!DOCTYPE svg PUBLIC "-//W3C//DTD SVG 1.1//EN"
 "http://www.w3.org/Graphics/SVG/1.1/DTD/svg11.dtd">
<!-- Generated by graphviz version 12.0.0 (20240704.0754)
 -->
<!-- Pages: 1 -->
<svg width="1009pt" height="265pt"
 viewBox="0.00 0.00 1009.00 265.00" xmlns="http://www.w3.org/2000/svg" xmlns:xlink="http://www.w3.org/1999/xlink">
<g id="graph0" class="graph" transform="scale(1 1) rotate(0) translate(4 261)">
<polygon fill="white" stroke="none" points="-4,4 -4,-261 1005,-261 1005,4 -4,4"/>
<!-- 1374412342080 -->
<g id="node1" class="node">
<title>1374412342080</title>
<path fill="pink" stroke="pink" d="M62.62,-55.5C62.62,-55.5 248.88,-55.5 248.88,-55.5 254.88,-55.5 260.88,-61.5 260.88,-67.5 260.88,-67.5 260.88,-79.5 260.88,-79.5 260.88,-85.5 254.88,-91.5 248.88,-91.5 248.88,-91.5 62.62,-91.5 62.62,-91.5 56.62,-91.5 50.62,-85.5 50.62,-79.5 50.62,-79.5 50.62,-67.5 50.62,-67.5 50.62,-61.5 56.62,-55.5 62.62,-55.5"/>
<text text-anchor="middle" x="155.75" y="-68.7" font-family="Times,serif" font-size="14.00">default/rolebinding/prometheus&#45;k8s</text>
</g>
<!-- 1374412342144 -->
<g id="node2" class="node">
<title>1374412342144</title>
<path fill="lightblue" stroke="lightblue" d="M664,-28.5C664,-28.5 989,-28.5 989,-28.5 995,-28.5 1001,-34.5 1001,-40.5 1001,-40.5 1001,-52.5 1001,-52.5 1001,-58.5 995,-64.5 989,-64.5 989,-64.5 664,-64.5 664,-64.5 658,-64.5 652,-58.5 652,-52.5 652,-52.5 652,-40.5 652,-40.5 652,-34.5 658,-28.5 664,-28.5"/>
<text text-anchor="middle" x="826.5" y="-41.7" font-family="Times,serif" font-size="14.00">manifests/prometheus&#45;roleBindingSpecificNamespaces.yaml</text>
</g>
<!-- 1374412342080&#45;&gt;1374412342144 -->
<g id="edge1" class="edge">
<title>1374412342080&#45;&gt;1374412342144</title>
<path fill="none" stroke="black" d="M261.24,-69.28C362.41,-65.2 518,-58.91 640.2,-53.98"/>
<polygon fill="black" stroke="black" points="640.18,-57.49 650.03,-53.58 639.89,-50.49 640.18,-57.49"/>
<text text-anchor="middle" x="481.75" y="-68.7" font-family="Times,serif" font-size="14.00">git@github.com:prometheus&#45;operator/kube&#45;prometheus</text>
</g>
<!-- 1374412342208 -->
<g id="node3" class="node">
<title>1374412342208</title>
<path fill="lightgreen" stroke="lightgreen" d="M46.88,-0.5C46.88,-0.5 264.62,-0.5 264.62,-0.5 270.62,-0.5 276.62,-6.5 276.62,-12.5 276.62,-12.5 276.62,-24.5 276.62,-24.5 276.62,-30.5 270.62,-36.5 264.62,-36.5 264.62,-36.5 46.87,-36.5 46.87,-36.5 40.88,-36.5 34.88,-30.5 34.88,-24.5 34.88,-24.5 34.88,-12.5 34.88,-12.5 34.88,-6.5 40.88,-0.5 46.88,-0.5"/>
<text text-anchor="middle" x="155.75" y="-13.7" font-family="Times,serif" font-size="14.00">kube&#45;system/rolebinding/prometheus&#45;k8s</text>
</g>
<!-- 1374412342208&#45;&gt;1374412342144 -->
<g id="edge2" class="edge">
<title>1374412342208&#45;&gt;1374412342144</title>
<path fill="none" stroke="black" d="M276.93,-21.32C373.46,-23.84 512.49,-28.06 634,-34 636.09,-34.1 638.2,-34.21 640.31,-34.31"/>
<polygon fill="black" stroke="black" points="640.05,-37.8 650.21,-34.83 640.41,-30.81 640.05,-37.8"/>
<text text-anchor="middle" x="481.75" y="-37.7" font-family="Times,serif" font-size="14.00">git@github.com:prometheus&#45;operator/kube&#45;prometheus</text>
</g>
<!-- 1374412342272 -->
<g id="node4" class="node">
<title>1374412342272</title>
<path fill="lightgreen" stroke="lightgreen" d="M12,-110.5C12,-110.5 299.5,-110.5 299.5,-110.5 305.5,-110.5 311.5,-116.5 311.5,-122.5 311.5,-122.5 311.5,-134.5 311.5,-134.5 311.5,-140.5 305.5,-146.5 299.5,-146.5 299.5,-146.5 12,-146.5 12,-146.5 6,-146.5 0,-140.5 0,-134.5 0,-134.5 0,-122.5 0,-122.5 0,-116.5 6,-110.5 12,-110.5"/>
<text text-anchor="middle" x="155.75" y="-123.7" font-family="Times,serif" font-size="14.00">kube&#45;system/rolebinding/resource&#45;metrics&#45;auth&#45;reader</text>
</g>
<!-- 1374412342336 -->
<g id="node5" class="node">
<title>1374412342336</title>
<path fill="lightblue" stroke="lightblue" d="M666.25,-110.5C666.25,-110.5 986.75,-110.5 986.75,-110.5 992.75,-110.5 998.75,-116.5 998.75,-122.5 998.75,-122.5 998.75,-134.5 998.75,-134.5 998.75,-140.5 992.75,-146.5 986.75,-146.5 986.75,-146.5 666.25,-146.5 666.25,-146.5 660.25,-146.5 654.25,-140.5 654.25,-134.5 654.25,-134.5 654.25,-122.5 654.25,-122.5 654.25,-116.5 660.25,-110.5 666.25,-110.5"/>
<text text-anchor="middle" x="826.5" y="-123.7" font-family="Times,serif" font-size="14.00">manifests/prometheusAdapter&#45;roleBindingAuthReader.yaml</text>
</g>
<!-- 1374412342272&#45;&gt;1374412342336 -->
<g id="edge3" class="edge">
<title>1374412342272&#45;&gt;1374412342336</title>
<path fill="none" stroke="black" d="M311.86,-128.5C410.6,-128.5 538.97,-128.5 642.67,-128.5"/>
<polygon fill="black" stroke="black" points="642.39,-132 652.39,-128.5 642.39,-125 642.39,-132"/>
<text text-anchor="middle" x="481.75" y="-131.7" font-family="Times,serif" font-size="14.00">git@github.com:prometheus&#45;operator/kube&#45;prometheus</text>
</g>
<!-- 1374412341824 -->
<g id="node6" class="node">
<title>1374412341824</title>
<path fill="pink" stroke="pink" d="M83.25,-220.5C83.25,-220.5 228.25,-220.5 228.25,-220.5 234.25,-220.5 240.25,-226.5 240.25,-232.5 240.25,-232.5 240.25,-244.5 240.25,-244.5 240.25,-250.5 234.25,-256.5 228.25,-256.5 228.25,-256.5 83.25,-256.5 83.25,-256.5 77.25,-256.5 71.25,-250.5 71.25,-244.5 71.25,-244.5 71.25,-232.5 71.25,-232.5 71.25,-226.5 77.25,-220.5 83.25,-220.5"/>
<text text-anchor="middle" x="155.75" y="-233.7" font-family="Times,serif" font-size="14.00">default/role/prometheus&#45;k8s</text>
</g>
<!-- 1374412341952 -->
<g id="node7" class="node">
<title>1374412341952</title>
<path fill="lightblue" stroke="lightblue" d="M685.75,-192.5C685.75,-192.5 967.25,-192.5 967.25,-192.5 973.25,-192.5 979.25,-198.5 979.25,-204.5 979.25,-204.5 979.25,-216.5 979.25,-216.5 979.25,-222.5 973.25,-228.5 967.25,-228.5 967.25,-228.5 685.75,-228.5 685.75,-228.5 679.75,-228.5 673.75,-222.5 673.75,-216.5 673.75,-216.5 673.75,-204.5 673.75,-204.5 673.75,-198.5 679.75,-192.5 685.75,-192.5"/>
<text text-anchor="middle" x="826.5" y="-205.7" font-family="Times,serif" font-size="14.00">manifests/prometheus&#45;roleSpecificNamespaces.yaml</text>
</g>
<!-- 1374412341824&#45;&gt;1374412341952 -->
<g id="edge4" class="edge">
<title>1374412341824&#45;&gt;1374412341952</title>
<path fill="none" stroke="black" d="M240.43,-235C345.68,-230.59 528.75,-222.92 662.13,-217.34"/>
<polygon fill="black" stroke="black" points="661.9,-220.85 671.75,-216.94 661.61,-213.86 661.9,-220.85"/>
<text text-anchor="middle" x="481.75" y="-233.7" font-family="Times,serif" font-size="14.00">git@github.com:prometheus&#45;operator/kube&#45;prometheus</text>
</g>
<!-- 1374412342016 -->
<g id="node8" class="node">
<title>1374412342016</title>
<path fill="lightgreen" stroke="lightgreen" d="M67.5,-165.5C67.5,-165.5 244,-165.5 244,-165.5 250,-165.5 256,-171.5 256,-177.5 256,-177.5 256,-189.5 256,-189.5 256,-195.5 250,-201.5 244,-201.5 244,-201.5 67.5,-201.5 67.5,-201.5 61.5,-201.5 55.5,-195.5 55.5,-189.5 55.5,-189.5 55.5,-177.5 55.5,-177.5 55.5,-171.5 61.5,-165.5 67.5,-165.5"/>
<text text-anchor="middle" x="155.75" y="-178.7" font-family="Times,serif" font-size="14.00">kube&#45;system/role/prometheus&#45;k8s</text>
</g>
<!-- 1374412342016&#45;&gt;1374412341952 -->
<g id="edge5" class="edge">
<title>1374412342016&#45;&gt;1374412341952</title>
<path fill="none" stroke="black" d="M256.41,-186.36C352.97,-189.27 503.55,-194.17 634,-200 643.2,-200.41 652.66,-200.86 662.2,-201.32"/>
<polygon fill="black" stroke="black" points="661.75,-204.81 671.91,-201.81 662.1,-197.81 661.75,-204.81"/>
<text text-anchor="middle" x="481.75" y="-202.7" font-family="Times,serif" font-size="14.00">git@github.com:prometheus&#45;operator/kube&#45;prometheus</text>
</g>
</g>
</svg>
