<?xml version="1.0" encoding="UTF-8" standalone="no"?>
<!DOCTYPE svg PUBLIC "-//W3C//DTD SVG 1.1//EN"
 "http://www.w3.org/Graphics/SVG/1.1/DTD/svg11.dtd">
<!-- Generated by graphviz version 12.0.0 (20240704.0754)
 -->
<!-- Pages: 1 -->
<svg width="1020pt" height="265pt"
 viewBox="0.00 0.00 1019.50 265.00" xmlns="http://www.w3.org/2000/svg" xmlns:xlink="http://www.w3.org/1999/xlink">
<g id="graph0" class="graph" transform="scale(1 1) rotate(0) translate(4 261)">
<polygon fill="white" stroke="none" points="-4,4 -4,-261 1015.5,-261 1015.5,4 -4,4"/>
<!-- 1374420488320 -->
<g id="node1" class="node">
<title>1374420488320</title>
<path fill="pink" stroke="pink" d="M83.25,-55.5C83.25,-55.5 228.25,-55.5 228.25,-55.5 234.25,-55.5 240.25,-61.5 240.25,-67.5 240.25,-67.5 240.25,-79.5 240.25,-79.5 240.25,-85.5 234.25,-91.5 228.25,-91.5 228.25,-91.5 83.25,-91.5 83.25,-91.5 77.25,-91.5 71.25,-85.5 71.25,-79.5 71.25,-79.5 71.25,-67.5 71.25,-67.5 71.25,-61.5 77.25,-55.5 83.25,-55.5"/>
<text text-anchor="middle" x="155.75" y="-68.7" font-family="Times,serif" font-size="14.00">default/role/prometheus&#45;k8s</text>
</g>
<!-- 1374420488448 -->
<g id="node2" class="node">
<title>1374420488448</title>
<path fill="lightblue" stroke="lightblue" d="M696.25,-41.5C696.25,-41.5 977.75,-41.5 977.75,-41.5 983.75,-41.5 989.75,-47.5 989.75,-53.5 989.75,-53.5 989.75,-65.5 989.75,-65.5 989.75,-71.5 983.75,-77.5 977.75,-77.5 977.75,-77.5 696.25,-77.5 696.25,-77.5 690.25,-77.5 684.25,-71.5 684.25,-65.5 684.25,-65.5 684.25,-53.5 684.25,-53.5 684.25,-47.5 690.25,-41.5 696.25,-41.5"/>
<text text-anchor="middle" x="837" y="-54.7" font-family="Times,serif" font-size="14.00">manifests/prometheus&#45;roleSpecificNamespaces.yaml</text>
</g>
<!-- 1374420488320&#45;&gt;1374420488448 -->
<g id="edge1" class="edge">
<title>1374420488320&#45;&gt;1374420488448</title>
<path fill="none" stroke="black" d="M240.72,-71.77C348.09,-69.56 536.38,-65.68 672.49,-62.87"/>
<polygon fill="black" stroke="black" points="672.4,-66.37 682.33,-62.67 672.26,-59.37 672.4,-66.37"/>
<text text-anchor="middle" x="487" y="-73.7" font-family="Times,serif" font-size="14.00">https://github.com/prometheus&#45;operator/kube&#45;prometheus</text>
</g>
<!-- 1374420488512 -->
<g id="node3" class="node">
<title>1374420488512</title>
<path fill="yellow" stroke="yellow" d="M67.5,-0.5C67.5,-0.5 244,-0.5 244,-0.5 250,-0.5 256,-6.5 256,-12.5 256,-12.5 256,-24.5 256,-24.5 256,-30.5 250,-36.5 244,-36.5 244,-36.5 67.5,-36.5 67.5,-36.5 61.5,-36.5 55.5,-30.5 55.5,-24.5 55.5,-24.5 55.5,-12.5 55.5,-12.5 55.5,-6.5 61.5,-0.5 67.5,-0.5"/>
<text text-anchor="middle" x="155.75" y="-13.7" font-family="Times,serif" font-size="14.00">kube&#45;system/role/prometheus&#45;k8s</text>
</g>
<!-- 1374420488512&#45;&gt;1374420488448 -->
<g id="edge2" class="edge">
<title>1374420488512&#45;&gt;1374420488448</title>
<path fill="none" stroke="black" d="M256.29,-22.87C354.89,-27.4 510.19,-35.06 644.5,-44 653.71,-44.61 663.17,-45.28 672.71,-45.97"/>
<polygon fill="black" stroke="black" points="672.2,-49.44 682.43,-46.68 672.71,-42.46 672.2,-49.44"/>
<text text-anchor="middle" x="487" y="-47.7" font-family="Times,serif" font-size="14.00">https://github.com/prometheus&#45;operator/kube&#45;prometheus</text>
</g>
<!-- 1374420488576 -->
<g id="node4" class="node">
<title>1374420488576</title>
<path fill="pink" stroke="pink" d="M62.62,-165.5C62.62,-165.5 248.88,-165.5 248.88,-165.5 254.88,-165.5 260.88,-171.5 260.88,-177.5 260.88,-177.5 260.88,-189.5 260.88,-189.5 260.88,-195.5 254.88,-201.5 248.88,-201.5 248.88,-201.5 62.62,-201.5 62.62,-201.5 56.62,-201.5 50.62,-195.5 50.62,-189.5 50.62,-189.5 50.62,-177.5 50.62,-177.5 50.62,-171.5 56.62,-165.5 62.62,-165.5"/>
<text text-anchor="middle" x="155.75" y="-178.7" font-family="Times,serif" font-size="14.00">default/rolebinding/prometheus&#45;k8s</text>
</g>
<!-- 1374420488640 -->
<g id="node5" class="node">
<title>1374420488640</title>
<path fill="lightblue" stroke="lightblue" d="M674.5,-123.5C674.5,-123.5 999.5,-123.5 999.5,-123.5 1005.5,-123.5 1011.5,-129.5 1011.5,-135.5 1011.5,-135.5 1011.5,-147.5 1011.5,-147.5 1011.5,-153.5 1005.5,-159.5 999.5,-159.5 999.5,-159.5 674.5,-159.5 674.5,-159.5 668.5,-159.5 662.5,-153.5 662.5,-147.5 662.5,-147.5 662.5,-135.5 662.5,-135.5 662.5,-129.5 668.5,-123.5 674.5,-123.5"/>
<text text-anchor="middle" x="837" y="-136.7" font-family="Times,serif" font-size="14.00">manifests/prometheus&#45;roleBindingSpecificNamespaces.yaml</text>
</g>
<!-- 1374420488576&#45;&gt;1374420488640 -->
<g id="edge3" class="edge">
<title>1374420488576&#45;&gt;1374420488640</title>
<path fill="none" stroke="black" d="M261,-179.28C359.81,-175.02 512.34,-167.75 644.5,-158.5 646.59,-158.35 648.7,-158.2 650.82,-158.05"/>
<polygon fill="black" stroke="black" points="651.01,-161.55 660.72,-157.32 650.49,-154.57 651.01,-161.55"/>
<text text-anchor="middle" x="487" y="-178.7" font-family="Times,serif" font-size="14.00">https://github.com/prometheus&#45;operator/kube&#45;prometheus</text>
</g>
<!-- 1374420488704 -->
<g id="node6" class="node">
<title>1374420488704</title>
<path fill="yellow" stroke="yellow" d="M46.88,-110.5C46.88,-110.5 264.62,-110.5 264.62,-110.5 270.62,-110.5 276.62,-116.5 276.62,-122.5 276.62,-122.5 276.62,-134.5 276.62,-134.5 276.62,-140.5 270.62,-146.5 264.62,-146.5 264.62,-146.5 46.87,-146.5 46.87,-146.5 40.88,-146.5 34.88,-140.5 34.88,-134.5 34.88,-134.5 34.88,-122.5 34.88,-122.5 34.88,-116.5 40.88,-110.5 46.88,-110.5"/>
<text text-anchor="middle" x="155.75" y="-123.7" font-family="Times,serif" font-size="14.00">kube&#45;system/rolebinding/prometheus&#45;k8s</text>
</g>
<!-- 1374420488704&#45;&gt;1374420488640 -->
<g id="edge4" class="edge">
<title>1374420488704&#45;&gt;1374420488640</title>
<path fill="none" stroke="black" d="M277.01,-130.8C380.56,-132.78 531.64,-135.68 650.65,-137.95"/>
<polygon fill="black" stroke="black" points="650.48,-141.45 660.55,-138.14 650.61,-134.45 650.48,-141.45"/>
<text text-anchor="middle" x="487" y="-140.7" font-family="Times,serif" font-size="14.00">https://github.com/prometheus&#45;operator/kube&#45;prometheus</text>
</g>
<!-- 1374420488768 -->
<g id="node7" class="node">
<title>1374420488768</title>
<path fill="yellow" stroke="yellow" d="M12,-220.5C12,-220.5 299.5,-220.5 299.5,-220.5 305.5,-220.5 311.5,-226.5 311.5,-232.5 311.5,-232.5 311.5,-244.5 311.5,-244.5 311.5,-250.5 305.5,-256.5 299.5,-256.5 299.5,-256.5 12,-256.5 12,-256.5 6,-256.5 0,-250.5 0,-244.5 0,-244.5 0,-232.5 0,-232.5 0,-226.5 6,-220.5 12,-220.5"/>
<text text-anchor="middle" x="155.75" y="-233.7" font-family="Times,serif" font-size="14.00">kube&#45;system/rolebinding/resource&#45;metrics&#45;auth&#45;reader</text>
</g>
<!-- 1374420488832 -->
<g id="node8" class="node">
<title>1374420488832</title>
<path fill="lightblue" stroke="lightblue" d="M676.75,-220.5C676.75,-220.5 997.25,-220.5 997.25,-220.5 1003.25,-220.5 1009.25,-226.5 1009.25,-232.5 1009.25,-232.5 1009.25,-244.5 1009.25,-244.5 1009.25,-250.5 1003.25,-256.5 997.25,-256.5 997.25,-256.5 676.75,-256.5 676.75,-256.5 670.75,-256.5 664.75,-250.5 664.75,-244.5 664.75,-244.5 664.75,-232.5 664.75,-232.5 664.75,-226.5 670.75,-220.5 676.75,-220.5"/>
<text text-anchor="middle" x="837" y="-233.7" font-family="Times,serif" font-size="14.00">manifests/prometheusAdapter&#45;roleBindingAuthReader.yaml</text>
</g>
<!-- 1374420488768&#45;&gt;1374420488832 -->
<g id="edge5" class="edge">
<title>1374420488768&#45;&gt;1374420488832</title>
<path fill="none" stroke="black" d="M311.73,-238.5C413.27,-238.5 546.44,-238.5 653.16,-238.5"/>
<polygon fill="black" stroke="black" points="652.87,-242 662.87,-238.5 652.87,-235 652.87,-242"/>
<text text-anchor="middle" x="487" y="-241.7" font-family="Times,serif" font-size="14.00">https://github.com/prometheus&#45;operator/kube&#45;prometheus</text>
</g>
</g>
</svg>
