<?xml version="1.0" encoding="UTF-8" standalone="no"?>
<!DOCTYPE svg PUBLIC "-//W3C//DTD SVG 1.1//EN"
 "http://www.w3.org/Graphics/SVG/1.1/DTD/svg11.dtd">
<!-- Generated by graphviz version 12.0.0 (20240704.0754)
 -->
<!-- Pages: 1 -->
<svg width="1084pt" height="1630pt"
 viewBox="0.00 0.00 1084.00 1629.72" xmlns="http://www.w3.org/2000/svg" xmlns:xlink="http://www.w3.org/1999/xlink">
<g id="graph0" class="graph" transform="scale(1 1) rotate(0) translate(4 1625.72)">
<polygon fill="white" stroke="none" points="-4,4 -4,-1625.72 1080,-1625.72 1080,4 -4,4"/>
<!-- 1374434824256 -->
<g id="node1" class="node">
<title>1374434824256</title>
<path fill="lightblue" stroke="lightblue" d="M96,-1420.22C96,-1420.22 351.25,-1420.22 351.25,-1420.22 357.25,-1420.22 363.25,-1426.22 363.25,-1432.22 363.25,-1432.22 363.25,-1444.22 363.25,-1444.22 363.25,-1450.22 357.25,-1456.22 351.25,-1456.22 351.25,-1456.22 96,-1456.22 96,-1456.22 90,-1456.22 84,-1450.22 84,-1444.22 84,-1444.22 84,-1432.22 84,-1432.22 84,-1426.22 90,-1420.22 96,-1420.22"/>
<text text-anchor="middle" x="223.62" y="-1433.42" font-family="Times,serif" font-size="14.00">monitoring/configmap/grafana&#45;dashboard&#45;nodes</text>
</g>
<!-- 1374434822976 -->
<g id="node2" class="node">
<title>1374434822976</title>
<path fill="lightblue" stroke="lightblue" d="M816.62,-733.22C816.62,-733.22 1057.62,-733.22 1057.62,-733.22 1063.62,-733.22 1069.62,-739.22 1069.62,-745.22 1069.62,-745.22 1069.62,-757.22 1069.62,-757.22 1069.62,-763.22 1063.62,-769.22 1057.62,-769.22 1057.62,-769.22 816.62,-769.22 816.62,-769.22 810.62,-769.22 804.62,-763.22 804.62,-757.22 804.62,-757.22 804.62,-745.22 804.62,-745.22 804.62,-739.22 810.62,-733.22 816.62,-733.22"/>
<text text-anchor="middle" x="937.12" y="-746.42" font-family="Times,serif" font-size="14.00">manifests/grafana&#45;dashboardDefinitions.yaml</text>
</g>
<!-- 1374434824256&#45;&gt;1374434822976 -->
<g id="edge1" class="edge">
<title>1374434824256&#45;&gt;1374434822976</title>
<path fill="none" stroke="black" d="M363.47,-1448.71C507.26,-1456.47 719.3,-1458.21 780.25,-1407.22 879.22,-1324.43 923.33,-897.78 933.67,-780.87"/>
<polygon fill="black" stroke="black" points="937.13,-781.43 934.51,-771.16 930.16,-780.82 937.13,-781.43"/>
<text text-anchor="middle" x="622.75" y="-1455.42" font-family="Times,serif" font-size="14.00">https://github.com/prometheus&#45;operator/kube&#45;prometheus</text>
</g>
<!-- 1374434824320 -->
<g id="node3" class="node">
<title>1374434824320</title>
<path fill="lightblue" stroke="lightblue" d="M75,-1365.22C75,-1365.22 372.25,-1365.22 372.25,-1365.22 378.25,-1365.22 384.25,-1371.22 384.25,-1377.22 384.25,-1377.22 384.25,-1389.22 384.25,-1389.22 384.25,-1395.22 378.25,-1401.22 372.25,-1401.22 372.25,-1401.22 75,-1401.22 75,-1401.22 69,-1401.22 63,-1395.22 63,-1389.22 63,-1389.22 63,-1377.22 63,-1377.22 63,-1371.22 69,-1365.22 75,-1365.22"/>
<text text-anchor="middle" x="223.62" y="-1378.42" font-family="Times,serif" font-size="14.00">monitoring/configmap/grafana&#45;dashboard&#45;nodes&#45;darwin</text>
</g>
<!-- 1374434824320&#45;&gt;1374434822976 -->
<g id="edge2" class="edge">
<title>1374434824320&#45;&gt;1374434822976</title>
<path fill="none" stroke="black" d="M384.54,-1386.47C537.74,-1388.06 750.02,-1385.68 780.25,-1361.22 873.33,-1285.94 921.24,-892.91 933.14,-780.99"/>
<polygon fill="black" stroke="black" points="936.61,-781.43 934.17,-771.12 929.65,-780.71 936.61,-781.43"/>
<text text-anchor="middle" x="622.75" y="-1389.42" font-family="Times,serif" font-size="14.00">https://github.com/prometheus&#45;operator/kube&#45;prometheus</text>
</g>
<!-- 1374434823040 -->
<g id="node4" class="node">
<title>1374434823040</title>
<path fill="lightblue" stroke="lightblue" d="M87,-1310.22C87,-1310.22 360.25,-1310.22 360.25,-1310.22 366.25,-1310.22 372.25,-1316.22 372.25,-1322.22 372.25,-1322.22 372.25,-1334.22 372.25,-1334.22 372.25,-1340.22 366.25,-1346.22 360.25,-1346.22 360.25,-1346.22 87,-1346.22 87,-1346.22 81,-1346.22 75,-1340.22 75,-1334.22 75,-1334.22 75,-1322.22 75,-1322.22 75,-1316.22 81,-1310.22 87,-1310.22"/>
<text text-anchor="middle" x="223.62" y="-1323.42" font-family="Times,serif" font-size="14.00">monitoring/configmap/grafana&#45;dashboard&#45;apiserver</text>
</g>
<!-- 1374434823040&#45;&gt;1374434822976 -->
<g id="edge3" class="edge">
<title>1374434823040&#45;&gt;1374434822976</title>
<path fill="none" stroke="black" d="M372.63,-1338.36C515.73,-1344.95 719.57,-1344.78 780.25,-1296.22 863.59,-1229.53 917.61,-884.58 932.16,-780.8"/>
<polygon fill="black" stroke="black" points="935.59,-781.52 933.5,-771.13 928.66,-780.56 935.59,-781.52"/>
<text text-anchor="middle" x="622.75" y="-1344.42" font-family="Times,serif" font-size="14.00">https://github.com/prometheus&#45;operator/kube&#45;prometheus</text>
</g>
<!-- 1374434823552 -->
<g id="node5" class="node">
<title>1374434823552</title>
<path fill="lightblue" stroke="lightblue" d="M59.25,-1255.22C59.25,-1255.22 388,-1255.22 388,-1255.22 394,-1255.22 400,-1261.22 400,-1267.22 400,-1267.22 400,-1279.22 400,-1279.22 400,-1285.22 394,-1291.22 388,-1291.22 388,-1291.22 59.25,-1291.22 59.25,-1291.22 53.25,-1291.22 47.25,-1285.22 47.25,-1279.22 47.25,-1279.22 47.25,-1267.22 47.25,-1267.22 47.25,-1261.22 53.25,-1255.22 59.25,-1255.22"/>
<text text-anchor="middle" x="223.62" y="-1268.42" font-family="Times,serif" font-size="14.00">monitoring/configmap/grafana&#45;dashboard&#45;k8s&#45;resources&#45;node</text>
</g>
<!-- 1374434823552&#45;&gt;1374434822976 -->
<g id="edge4" class="edge">
<title>1374434823552&#45;&gt;1374434822976</title>
<path fill="none" stroke="black" d="M400.16,-1275.94C551.55,-1276.66 750.45,-1273.09 780.25,-1250.22 857.74,-1190.74 915.13,-878.44 931.43,-780.58"/>
<polygon fill="black" stroke="black" points="934.84,-781.41 933.01,-770.98 927.93,-780.28 934.84,-781.41"/>
<text text-anchor="middle" x="622.75" y="-1278.42" font-family="Times,serif" font-size="14.00">https://github.com/prometheus&#45;operator/kube&#45;prometheus</text>
</g>
<!-- 1374434823680 -->
<g id="node6" class="node">
<title>1374434823680</title>
<path fill="lightblue" stroke="lightblue" d="M46.88,-1200.22C46.88,-1200.22 400.38,-1200.22 400.38,-1200.22 406.38,-1200.22 412.38,-1206.22 412.38,-1212.22 412.38,-1212.22 412.38,-1224.22 412.38,-1224.22 412.38,-1230.22 406.38,-1236.22 400.38,-1236.22 400.38,-1236.22 46.88,-1236.22 46.88,-1236.22 40.87,-1236.22 34.88,-1230.22 34.88,-1224.22 34.88,-1224.22 34.88,-1212.22 34.88,-1212.22 34.88,-1206.22 40.88,-1200.22 46.88,-1200.22"/>
<text text-anchor="middle" x="223.62" y="-1213.42" font-family="Times,serif" font-size="14.00">monitoring/configmap/grafana&#45;dashboard&#45;k8s&#45;resources&#45;workload</text>
</g>
<!-- 1374434823680&#45;&gt;1374434822976 -->
<g id="edge5" class="edge">
<title>1374434823680&#45;&gt;1374434822976</title>
<path fill="none" stroke="black" d="M412.58,-1228.96C550.69,-1232.94 723.72,-1228.5 780.25,-1186.22 914.08,-1086.14 933.32,-860.92 935.84,-780.47"/>
<polygon fill="black" stroke="black" points="939.34,-780.86 936.08,-770.78 932.34,-780.69 939.34,-780.86"/>
<text text-anchor="middle" x="622.75" y="-1232.42" font-family="Times,serif" font-size="14.00">https://github.com/prometheus&#45;operator/kube&#45;prometheus</text>
</g>
<!-- 1374434824896 -->
<g id="node7" class="node">
<title>1374434824896</title>
<path fill="lightblue" stroke="lightblue" d="M825.62,-1475.22C825.62,-1475.22 1048.62,-1475.22 1048.62,-1475.22 1054.62,-1475.22 1060.62,-1481.22 1060.62,-1487.22 1060.62,-1487.22 1060.62,-1499.22 1060.62,-1499.22 1060.62,-1505.22 1054.62,-1511.22 1048.62,-1511.22 1048.62,-1511.22 825.62,-1511.22 825.62,-1511.22 819.62,-1511.22 813.62,-1505.22 813.62,-1499.22 813.62,-1499.22 813.62,-1487.22 813.62,-1487.22 813.62,-1481.22 819.62,-1475.22 825.62,-1475.22"/>
<text text-anchor="middle" x="937.12" y="-1488.42" font-family="Times,serif" font-size="14.00">manifests/grafana&#45;dashboardSources.yaml</text>
</g>
<!-- 1374434822528 -->
<g id="node8" class="node">
<title>1374434822528</title>
<path fill="lightblue" stroke="lightblue" d="M124.88,-1530.22C124.88,-1530.22 322.38,-1530.22 322.38,-1530.22 328.38,-1530.22 334.38,-1536.22 334.38,-1542.22 334.38,-1542.22 334.38,-1554.22 334.38,-1554.22 334.38,-1560.22 328.38,-1566.22 322.38,-1566.22 322.38,-1566.22 124.88,-1566.22 124.88,-1566.22 118.88,-1566.22 112.88,-1560.22 112.88,-1554.22 112.88,-1554.22 112.88,-1542.22 112.88,-1542.22 112.88,-1536.22 118.88,-1530.22 124.88,-1530.22"/>
<text text-anchor="middle" x="223.62" y="-1543.42" font-family="Times,serif" font-size="14.00">monitoring/configmap/adapter&#45;config</text>
</g>
<!-- 1374434822656 -->
<g id="node9" class="node">
<title>1374434822656</title>
<path fill="lightblue" stroke="lightblue" d="M811.38,-1530.22C811.38,-1530.22 1062.88,-1530.22 1062.88,-1530.22 1068.88,-1530.22 1074.88,-1536.22 1074.88,-1542.22 1074.88,-1542.22 1074.88,-1554.22 1074.88,-1554.22 1074.88,-1560.22 1068.88,-1566.22 1062.88,-1566.22 1062.88,-1566.22 811.38,-1566.22 811.38,-1566.22 805.38,-1566.22 799.38,-1560.22 799.38,-1554.22 799.38,-1554.22 799.38,-1542.22 799.38,-1542.22 799.38,-1536.22 805.38,-1530.22 811.38,-1530.22"/>
<text text-anchor="middle" x="937.12" y="-1543.42" font-family="Times,serif" font-size="14.00">manifests/prometheusAdapter&#45;configMap.yaml</text>
</g>
<!-- 1374434822528&#45;&gt;1374434822656 -->
<g id="edge6" class="edge">
<title>1374434822528&#45;&gt;1374434822656</title>
<path fill="none" stroke="black" d="M334.63,-1548.22C456.22,-1548.22 652.73,-1548.22 787.85,-1548.22"/>
<polygon fill="black" stroke="black" points="787.59,-1551.72 797.59,-1548.22 787.59,-1544.72 787.59,-1551.72"/>
<text text-anchor="middle" x="622.75" y="-1551.42" font-family="Times,serif" font-size="14.00">https://github.com/prometheus&#45;operator/kube&#45;prometheus</text>
</g>
<!-- 1374434822848 -->
<g id="node10" class="node">
<title>1374434822848</title>
<path fill="lightblue" stroke="lightblue" d="M810.25,-1585.22C810.25,-1585.22 1064,-1585.22 1064,-1585.22 1070,-1585.22 1076,-1591.22 1076,-1597.22 1076,-1597.22 1076,-1609.22 1076,-1609.22 1076,-1615.22 1070,-1621.22 1064,-1621.22 1064,-1621.22 810.25,-1621.22 810.25,-1621.22 804.25,-1621.22 798.25,-1615.22 798.25,-1609.22 798.25,-1609.22 798.25,-1597.22 798.25,-1597.22 798.25,-1591.22 804.25,-1585.22 810.25,-1585.22"/>
<text text-anchor="middle" x="937.12" y="-1598.42" font-family="Times,serif" font-size="14.00">manifests/blackboxExporter&#45;configuration.yaml</text>
</g>
<!-- 1374434823744 -->
<g id="node11" class="node">
<title>1374434823744</title>
<path fill="lightblue" stroke="lightblue" d="M12,-1145.22C12,-1145.22 435.25,-1145.22 435.25,-1145.22 441.25,-1145.22 447.25,-1151.22 447.25,-1157.22 447.25,-1157.22 447.25,-1169.22 447.25,-1169.22 447.25,-1175.22 441.25,-1181.22 435.25,-1181.22 435.25,-1181.22 12,-1181.22 12,-1181.22 6,-1181.22 0,-1175.22 0,-1169.22 0,-1169.22 0,-1157.22 0,-1157.22 0,-1151.22 6,-1145.22 12,-1145.22"/>
<text text-anchor="middle" x="223.62" y="-1158.42" font-family="Times,serif" font-size="14.00">monitoring/configmap/grafana&#45;dashboard&#45;k8s&#45;resources&#45;workloads&#45;namespace</text>
</g>
<!-- 1374434823744&#45;&gt;1374434822976 -->
<g id="edge7" class="edge">
<title>1374434823744&#45;&gt;1374434822976</title>
<path fill="none" stroke="black" d="M447.63,-1165.77C589.94,-1165.44 752.73,-1160.67 780.25,-1141.22 902.38,-1054.94 928.87,-856.61 934.57,-781.13"/>
<polygon fill="black" stroke="black" points="938.06,-781.43 935.24,-771.22 931.08,-780.96 938.06,-781.43"/>
<text text-anchor="middle" x="622.75" y="-1168.42" font-family="Times,serif" font-size="14.00">https://github.com/prometheus&#45;operator/kube&#45;prometheus</text>
</g>
<!-- 1374434823296 -->
<g id="node12" class="node">
<title>1374434823296</title>
<path fill="lightblue" stroke="lightblue" d="M64.12,-1090.22C64.12,-1090.22 383.12,-1090.22 383.12,-1090.22 389.12,-1090.22 395.12,-1096.22 395.12,-1102.22 395.12,-1102.22 395.12,-1114.22 395.12,-1114.22 395.12,-1120.22 389.12,-1126.22 383.12,-1126.22 383.12,-1126.22 64.12,-1126.22 64.12,-1126.22 58.13,-1126.22 52.12,-1120.22 52.12,-1114.22 52.12,-1114.22 52.12,-1102.22 52.12,-1102.22 52.12,-1096.22 58.12,-1090.22 64.12,-1090.22"/>
<text text-anchor="middle" x="223.62" y="-1103.42" font-family="Times,serif" font-size="14.00">monitoring/configmap/grafana&#45;dashboard&#45;grafana&#45;overview</text>
</g>
<!-- 1374434823296&#45;&gt;1374434822976 -->
<g id="edge8" class="edge">
<title>1374434823296&#45;&gt;1374434822976</title>
<path fill="none" stroke="black" d="M395.34,-1119.73C535.07,-1125.76 719.25,-1124.9 780.25,-1084.22 887.22,-1012.9 922.35,-847.68 932.48,-780.46"/>
<polygon fill="black" stroke="black" points="935.89,-781.35 933.83,-770.96 928.95,-780.36 935.89,-781.35"/>
<text text-anchor="middle" x="622.75" y="-1125.42" font-family="Times,serif" font-size="14.00">https://github.com/prometheus&#45;operator/kube&#45;prometheus</text>
</g>
<!-- 1374434823424 -->
<g id="node13" class="node">
<title>1374434823424</title>
<path fill="lightblue" stroke="lightblue" d="M39.75,-1035.22C39.75,-1035.22 407.5,-1035.22 407.5,-1035.22 413.5,-1035.22 419.5,-1041.22 419.5,-1047.22 419.5,-1047.22 419.5,-1059.22 419.5,-1059.22 419.5,-1065.22 413.5,-1071.22 407.5,-1071.22 407.5,-1071.22 39.75,-1071.22 39.75,-1071.22 33.75,-1071.22 27.75,-1065.22 27.75,-1059.22 27.75,-1059.22 27.75,-1047.22 27.75,-1047.22 27.75,-1041.22 33.75,-1035.22 39.75,-1035.22"/>
<text text-anchor="middle" x="223.62" y="-1048.42" font-family="Times,serif" font-size="14.00">monitoring/configmap/grafana&#45;dashboard&#45;k8s&#45;resources&#45;multicluster</text>
</g>
<!-- 1374434823424&#45;&gt;1374434822976 -->
<g id="edge9" class="edge">
<title>1374434823424&#45;&gt;1374434822976</title>
<path fill="none" stroke="black" d="M419.81,-1062.85C555.26,-1065.92 721.5,-1061.4 780.25,-1025.22 871.37,-969.11 914.23,-838.87 929.39,-780.47"/>
<polygon fill="black" stroke="black" points="932.75,-781.49 931.77,-770.94 925.96,-779.8 932.75,-781.49"/>
<text text-anchor="middle" x="622.75" y="-1066.42" font-family="Times,serif" font-size="14.00">https://github.com/prometheus&#45;operator/kube&#45;prometheus</text>
</g>
<!-- 1374434823936 -->
<g id="node14" class="node">
<title>1374434823936</title>
<path fill="lightblue" stroke="lightblue" d="M45,-980.22C45,-980.22 402.25,-980.22 402.25,-980.22 408.25,-980.22 414.25,-986.22 414.25,-992.22 414.25,-992.22 414.25,-1004.22 414.25,-1004.22 414.25,-1010.22 408.25,-1016.22 402.25,-1016.22 402.25,-1016.22 45,-1016.22 45,-1016.22 39,-1016.22 33,-1010.22 33,-1004.22 33,-1004.22 33,-992.22 33,-992.22 33,-986.22 39,-980.22 45,-980.22"/>
<text text-anchor="middle" x="223.62" y="-993.42" font-family="Times,serif" font-size="14.00">monitoring/configmap/grafana&#45;dashboard&#45;namespace&#45;by&#45;workload</text>
</g>
<!-- 1374434823936&#45;&gt;1374434822976 -->
<g id="edge10" class="edge">
<title>1374434823936&#45;&gt;1374434822976</title>
<path fill="none" stroke="black" d="M414.52,-1004.78C550.18,-1006.28 719.07,-1000.7 780.25,-967.22 856.46,-925.52 904.76,-828.7 925.07,-780.12"/>
<polygon fill="black" stroke="black" points="928.22,-781.67 928.74,-771.09 921.73,-779.04 928.22,-781.67"/>
<text text-anchor="middle" x="622.75" y="-1007.42" font-family="Times,serif" font-size="14.00">https://github.com/prometheus&#45;operator/kube&#45;prometheus</text>
</g>
<!-- 1374434824832 -->
<g id="node15" class="node">
<title>1374434824832</title>
<path fill="lightblue" stroke="lightblue" d="M111.38,-1475.22C111.38,-1475.22 335.88,-1475.22 335.88,-1475.22 341.88,-1475.22 347.88,-1481.22 347.88,-1487.22 347.88,-1487.22 347.88,-1499.22 347.88,-1499.22 347.88,-1505.22 341.88,-1511.22 335.88,-1511.22 335.88,-1511.22 111.38,-1511.22 111.38,-1511.22 105.38,-1511.22 99.38,-1505.22 99.38,-1499.22 99.38,-1499.22 99.38,-1487.22 99.38,-1487.22 99.38,-1481.22 105.38,-1475.22 111.38,-1475.22"/>
<text text-anchor="middle" x="223.62" y="-1488.42" font-family="Times,serif" font-size="14.00">monitoring/configmap/grafana&#45;dashboards</text>
</g>
<!-- 1374434824832&#45;&gt;1374434824896 -->
<g id="edge11" class="edge">
<title>1374434824832&#45;&gt;1374434824896</title>
<path fill="none" stroke="black" d="M348.15,-1493.22C474.88,-1493.22 671.44,-1493.22 801.93,-1493.22"/>
<polygon fill="black" stroke="black" points="801.65,-1496.72 811.65,-1493.22 801.65,-1489.72 801.65,-1496.72"/>
<text text-anchor="middle" x="622.75" y="-1496.42" font-family="Times,serif" font-size="14.00">https://github.com/prometheus&#45;operator/kube&#45;prometheus</text>
</g>
<!-- 1374434823232 -->
<g id="node16" class="node">
<title>1374434823232</title>
<path fill="lightblue" stroke="lightblue" d="M59.62,-925.22C59.62,-925.22 387.62,-925.22 387.62,-925.22 393.62,-925.22 399.62,-931.22 399.62,-937.22 399.62,-937.22 399.62,-949.22 399.62,-949.22 399.62,-955.22 393.62,-961.22 387.62,-961.22 387.62,-961.22 59.62,-961.22 59.62,-961.22 53.63,-961.22 47.62,-955.22 47.62,-949.22 47.62,-949.22 47.62,-937.22 47.62,-937.22 47.62,-931.22 53.62,-925.22 59.62,-925.22"/>
<text text-anchor="middle" x="223.62" y="-938.42" font-family="Times,serif" font-size="14.00">monitoring/configmap/grafana&#45;dashboard&#45;controller&#45;manager</text>
</g>
<!-- 1374434823232&#45;&gt;1374434822976 -->
<g id="edge12" class="edge">
<title>1374434823232&#45;&gt;1374434822976</title>
<path fill="none" stroke="black" d="M400.03,-947.18C537,-947.74 714.73,-942.16 780.25,-912.22 843.27,-883.42 894.04,-816.78 919.11,-778.88"/>
<polygon fill="black" stroke="black" points="921.89,-781.03 924.38,-770.73 916.01,-777.22 921.89,-781.03"/>
<text text-anchor="middle" x="622.75" y="-949.42" font-family="Times,serif" font-size="14.00">https://github.com/prometheus&#45;operator/kube&#45;prometheus</text>
</g>
<!-- 1374434823104 -->
<g id="node17" class="node">
<title>1374434823104</title>
<path fill="lightblue" stroke="lightblue" d="M79.5,-870.22C79.5,-870.22 367.75,-870.22 367.75,-870.22 373.75,-870.22 379.75,-876.22 379.75,-882.22 379.75,-882.22 379.75,-894.22 379.75,-894.22 379.75,-900.22 373.75,-906.22 367.75,-906.22 367.75,-906.22 79.5,-906.22 79.5,-906.22 73.5,-906.22 67.5,-900.22 67.5,-894.22 67.5,-894.22 67.5,-882.22 67.5,-882.22 67.5,-876.22 73.5,-870.22 79.5,-870.22"/>
<text text-anchor="middle" x="223.62" y="-883.42" font-family="Times,serif" font-size="14.00">monitoring/configmap/grafana&#45;dashboard&#45;cluster&#45;total</text>
</g>
<!-- 1374434823104&#45;&gt;1374434822976 -->
<g id="edge13" class="edge">
<title>1374434823104&#45;&gt;1374434822976</title>
<path fill="none" stroke="black" d="M379.96,-893.57C493.38,-893.14 649.52,-883.45 780.25,-842.22 826.09,-827.76 872.96,-797.96 903.17,-776.39"/>
<polygon fill="black" stroke="black" points="905.11,-779.31 911.15,-770.6 901,-773.64 905.11,-779.31"/>
<text text-anchor="middle" x="622.75" y="-894.42" font-family="Times,serif" font-size="14.00">https://github.com/prometheus&#45;operator/kube&#45;prometheus</text>
</g>
<!-- 1374434823616 -->
<g id="node18" class="node">
<title>1374434823616</title>
<path fill="lightblue" stroke="lightblue" d="M62.25,-815.22C62.25,-815.22 385,-815.22 385,-815.22 391,-815.22 397,-821.22 397,-827.22 397,-827.22 397,-839.22 397,-839.22 397,-845.22 391,-851.22 385,-851.22 385,-851.22 62.25,-851.22 62.25,-851.22 56.25,-851.22 50.25,-845.22 50.25,-839.22 50.25,-839.22 50.25,-827.22 50.25,-827.22 50.25,-821.22 56.25,-815.22 62.25,-815.22"/>
<text text-anchor="middle" x="223.62" y="-828.42" font-family="Times,serif" font-size="14.00">monitoring/configmap/grafana&#45;dashboard&#45;k8s&#45;resources&#45;pod</text>
</g>
<!-- 1374434823616&#45;&gt;1374434822976 -->
<g id="edge14" class="edge">
<title>1374434823616&#45;&gt;1374434822976</title>
<path fill="none" stroke="black" d="M397.23,-826.68C507.35,-820.75 652.82,-809.67 780.25,-789.22 806.36,-785.03 834.55,-778.72 859.68,-772.44"/>
<polygon fill="black" stroke="black" points="860.32,-775.89 869.15,-770.04 858.59,-769.11 860.32,-775.89"/>
<text text-anchor="middle" x="622.75" y="-824.42" font-family="Times,serif" font-size="14.00">https://github.com/prometheus&#45;operator/kube&#45;prometheus</text>
</g>
<!-- 1374434824064 -->
<g id="node19" class="node">
<title>1374434824064</title>
<path fill="lightblue" stroke="lightblue" d="M54.75,-760.22C54.75,-760.22 392.5,-760.22 392.5,-760.22 398.5,-760.22 404.5,-766.22 404.5,-772.22 404.5,-772.22 404.5,-784.22 404.5,-784.22 404.5,-790.22 398.5,-796.22 392.5,-796.22 392.5,-796.22 54.75,-796.22 54.75,-796.22 48.75,-796.22 42.75,-790.22 42.75,-784.22 42.75,-784.22 42.75,-772.22 42.75,-772.22 42.75,-766.22 48.75,-760.22 54.75,-760.22"/>
<text text-anchor="middle" x="223.62" y="-773.42" font-family="Times,serif" font-size="14.00">monitoring/configmap/grafana&#45;dashboard&#45;node&#45;cluster&#45;rsrc&#45;use</text>
</g>
<!-- 1374434824064&#45;&gt;1374434822976 -->
<g id="edge15" class="edge">
<title>1374434824064&#45;&gt;1374434822976</title>
<path fill="none" stroke="black" d="M404.63,-771.39C524.93,-766.83 681.04,-760.9 792.89,-756.66"/>
<polygon fill="black" stroke="black" points="792.89,-760.16 802.75,-756.28 792.62,-753.17 792.89,-760.16"/>
<text text-anchor="middle" x="622.75" y="-771.42" font-family="Times,serif" font-size="14.00">https://github.com/prometheus&#45;operator/kube&#45;prometheus</text>
</g>
<!-- 1374434824768 -->
<g id="node20" class="node">
<title>1374434824768</title>
<path fill="lightblue" stroke="lightblue" d="M72,-705.22C72,-705.22 375.25,-705.22 375.25,-705.22 381.25,-705.22 387.25,-711.22 387.25,-717.22 387.25,-717.22 387.25,-729.22 387.25,-729.22 387.25,-735.22 381.25,-741.22 375.25,-741.22 375.25,-741.22 72,-741.22 72,-741.22 66,-741.22 60,-735.22 60,-729.22 60,-729.22 60,-717.22 60,-717.22 60,-711.22 66,-705.22 72,-705.22"/>
<text text-anchor="middle" x="223.62" y="-718.42" font-family="Times,serif" font-size="14.00">monitoring/configmap/grafana&#45;dashboard&#45;workload&#45;total</text>
</g>
<!-- 1374434824768&#45;&gt;1374434822976 -->
<g id="edge16" class="edge">
<title>1374434824768&#45;&gt;1374434822976</title>
<path fill="none" stroke="black" d="M387.64,-724.25C498.44,-725.67 648.28,-728.99 780.25,-736.72 784.43,-736.97 788.67,-737.23 792.95,-737.52"/>
<polygon fill="black" stroke="black" points="792.63,-741.01 802.85,-738.22 793.12,-734.03 792.63,-741.01"/>
<text text-anchor="middle" x="622.75" y="-739.42" font-family="Times,serif" font-size="14.00">https://github.com/prometheus&#45;operator/kube&#45;prometheus</text>
</g>
<!-- 1374434824384 -->
<g id="node21" class="node">
<title>1374434824384</title>
<path fill="lightblue" stroke="lightblue" d="M47.25,-650.22C47.25,-650.22 400,-650.22 400,-650.22 406,-650.22 412,-656.22 412,-662.22 412,-662.22 412,-674.22 412,-674.22 412,-680.22 406,-686.22 400,-686.22 400,-686.22 47.25,-686.22 47.25,-686.22 41.25,-686.22 35.25,-680.22 35.25,-674.22 35.25,-674.22 35.25,-662.22 35.25,-662.22 35.25,-656.22 41.25,-650.22 47.25,-650.22"/>
<text text-anchor="middle" x="223.62" y="-663.42" font-family="Times,serif" font-size="14.00">monitoring/configmap/grafana&#45;dashboard&#45;persistentvolumesusage</text>
</g>
<!-- 1374434824384&#45;&gt;1374434822976 -->
<g id="edge17" class="edge">
<title>1374434824384&#45;&gt;1374434822976</title>
<path fill="none" stroke="black" d="M412.37,-670.11C520.64,-673.79 658.94,-682.93 780.25,-704.72 811.66,-710.36 845.71,-720.09 873.95,-729.19"/>
<polygon fill="black" stroke="black" points="872.84,-732.5 883.43,-732.29 875.02,-725.85 872.84,-732.5"/>
<text text-anchor="middle" x="622.75" y="-707.42" font-family="Times,serif" font-size="14.00">https://github.com/prometheus&#45;operator/kube&#45;prometheus</text>
</g>
<!-- 1374434824448 -->
<g id="node22" class="node">
<title>1374434824448</title>
<path fill="lightblue" stroke="lightblue" d="M87.38,-595.22C87.38,-595.22 359.88,-595.22 359.88,-595.22 365.88,-595.22 371.88,-601.22 371.88,-607.22 371.88,-607.22 371.88,-619.22 371.88,-619.22 371.88,-625.22 365.88,-631.22 359.88,-631.22 359.88,-631.22 87.37,-631.22 87.37,-631.22 81.38,-631.22 75.38,-625.22 75.38,-619.22 75.38,-619.22 75.38,-607.22 75.38,-607.22 75.38,-601.22 81.38,-595.22 87.38,-595.22"/>
<text text-anchor="middle" x="223.62" y="-608.42" font-family="Times,serif" font-size="14.00">monitoring/configmap/grafana&#45;dashboard&#45;pod&#45;total</text>
</g>
<!-- 1374434824448&#45;&gt;1374434822976 -->
<g id="edge18" class="edge">
<title>1374434824448&#45;&gt;1374434822976</title>
<path fill="none" stroke="black" d="M372.32,-603.89C486.53,-601.28 647.1,-607.8 780.25,-651.72 828.6,-667.67 876.87,-702.05 906.6,-725.9"/>
<polygon fill="black" stroke="black" points="904.08,-728.36 914.04,-731.97 908.51,-722.94 904.08,-728.36"/>
<text text-anchor="middle" x="622.75" y="-654.42" font-family="Times,serif" font-size="14.00">https://github.com/prometheus&#45;operator/kube&#45;prometheus</text>
</g>
<!-- 1374434824704 -->
<g id="node23" class="node">
<title>1374434824704</title>
<path fill="lightblue" stroke="lightblue" d="M85.88,-540.22C85.88,-540.22 361.38,-540.22 361.38,-540.22 367.38,-540.22 373.38,-546.22 373.38,-552.22 373.38,-552.22 373.38,-564.22 373.38,-564.22 373.38,-570.22 367.38,-576.22 361.38,-576.22 361.38,-576.22 85.87,-576.22 85.87,-576.22 79.88,-576.22 73.88,-570.22 73.88,-564.22 73.88,-564.22 73.88,-552.22 73.88,-552.22 73.88,-546.22 79.88,-540.22 85.88,-540.22"/>
<text text-anchor="middle" x="223.62" y="-553.42" font-family="Times,serif" font-size="14.00">monitoring/configmap/grafana&#45;dashboard&#45;scheduler</text>
</g>
<!-- 1374434824704&#45;&gt;1374434822976 -->
<g id="edge19" class="edge">
<title>1374434824704&#45;&gt;1374434822976</title>
<path fill="none" stroke="black" d="M373.82,-552.19C513.45,-548.8 710.66,-550.46 780.25,-582.72 845.13,-612.81 895.65,-683.52 920.06,-723.11"/>
<polygon fill="black" stroke="black" points="917.03,-724.87 925.18,-731.63 923.03,-721.26 917.03,-724.87"/>
<text text-anchor="middle" x="622.75" y="-585.42" font-family="Times,serif" font-size="14.00">https://github.com/prometheus&#45;operator/kube&#45;prometheus</text>
</g>
<!-- 1374434824576 -->
<g id="node24" class="node">
<title>1374434824576</title>
<path fill="lightblue" stroke="lightblue" d="M42.37,-485.22C42.37,-485.22 404.88,-485.22 404.88,-485.22 410.88,-485.22 416.88,-491.22 416.88,-497.22 416.88,-497.22 416.88,-509.22 416.88,-509.22 416.88,-515.22 410.88,-521.22 404.88,-521.22 404.88,-521.22 42.37,-521.22 42.37,-521.22 36.37,-521.22 30.38,-515.22 30.38,-509.22 30.38,-509.22 30.38,-497.22 30.38,-497.22 30.38,-491.22 36.37,-485.22 42.37,-485.22"/>
<text text-anchor="middle" x="223.62" y="-498.42" font-family="Times,serif" font-size="14.00">monitoring/configmap/grafana&#45;dashboard&#45;prometheus&#45;remote&#45;write</text>
</g>
<!-- 1374434824576&#45;&gt;1374434822976 -->
<g id="edge20" class="edge">
<title>1374434824576&#45;&gt;1374434822976</title>
<path fill="none" stroke="black" d="M417.04,-494.74C552.3,-492.06 719.53,-496.34 780.25,-529.72 858.05,-572.49 905.87,-672.64 925.62,-722.28"/>
<polygon fill="black" stroke="black" points="922.31,-723.43 929.18,-731.5 928.84,-720.91 922.31,-723.43"/>
<text text-anchor="middle" x="622.75" y="-532.42" font-family="Times,serif" font-size="14.00">https://github.com/prometheus&#45;operator/kube&#45;prometheus</text>
</g>
<!-- 1374434824640 -->
<g id="node25" class="node">
<title>1374434824640</title>
<path fill="lightblue" stroke="lightblue" d="M96,-430.22C96,-430.22 351.25,-430.22 351.25,-430.22 357.25,-430.22 363.25,-436.22 363.25,-442.22 363.25,-442.22 363.25,-454.22 363.25,-454.22 363.25,-460.22 357.25,-466.22 351.25,-466.22 351.25,-466.22 96,-466.22 96,-466.22 90,-466.22 84,-460.22 84,-454.22 84,-454.22 84,-442.22 84,-442.22 84,-436.22 90,-430.22 96,-430.22"/>
<text text-anchor="middle" x="223.62" y="-443.42" font-family="Times,serif" font-size="14.00">monitoring/configmap/grafana&#45;dashboard&#45;proxy</text>
</g>
<!-- 1374434824640&#45;&gt;1374434822976 -->
<g id="edge21" class="edge">
<title>1374434824640&#45;&gt;1374434822976</title>
<path fill="none" stroke="black" d="M363.51,-439.29C505.05,-432.8 713.05,-431.31 780.25,-472.72 872.7,-529.7 914.96,-662.68 929.69,-721.88"/>
<polygon fill="black" stroke="black" points="926.27,-722.64 931.99,-731.55 933.08,-721.01 926.27,-722.64"/>
<text text-anchor="middle" x="622.75" y="-476.42" font-family="Times,serif" font-size="14.00">https://github.com/prometheus&#45;operator/kube&#45;prometheus</text>
</g>
<!-- 1374434822720 -->
<g id="node26" class="node">
<title>1374434822720</title>
<path fill="lightblue" stroke="lightblue" d="M76.12,-1585.22C76.12,-1585.22 371.12,-1585.22 371.12,-1585.22 377.12,-1585.22 383.12,-1591.22 383.12,-1597.22 383.12,-1597.22 383.12,-1609.22 383.12,-1609.22 383.12,-1615.22 377.12,-1621.22 371.12,-1621.22 371.12,-1621.22 76.12,-1621.22 76.12,-1621.22 70.12,-1621.22 64.12,-1615.22 64.12,-1609.22 64.12,-1609.22 64.12,-1597.22 64.12,-1597.22 64.12,-1591.22 70.12,-1585.22 76.12,-1585.22"/>
<text text-anchor="middle" x="223.62" y="-1598.42" font-family="Times,serif" font-size="14.00">monitoring/configmap/blackbox&#45;exporter&#45;configuration</text>
</g>
<!-- 1374434822720&#45;&gt;1374434822848 -->
<g id="edge22" class="edge">
<title>1374434822720&#45;&gt;1374434822848</title>
<path fill="none" stroke="black" d="M383.41,-1603.22C503.93,-1603.22 668.48,-1603.22 786.65,-1603.22"/>
<polygon fill="black" stroke="black" points="786.42,-1606.72 796.42,-1603.22 786.42,-1599.72 786.42,-1606.72"/>
<text text-anchor="middle" x="622.75" y="-1606.42" font-family="Times,serif" font-size="14.00">https://github.com/prometheus&#45;operator/kube&#45;prometheus</text>
</g>
<!-- 1374434823808 -->
<g id="node27" class="node">
<title>1374434823808</title>
<path fill="lightblue" stroke="lightblue" d="M91.88,-375.22C91.88,-375.22 355.38,-375.22 355.38,-375.22 361.38,-375.22 367.38,-381.22 367.38,-387.22 367.38,-387.22 367.38,-399.22 367.38,-399.22 367.38,-405.22 361.38,-411.22 355.38,-411.22 355.38,-411.22 91.88,-411.22 91.88,-411.22 85.88,-411.22 79.88,-405.22 79.88,-399.22 79.88,-399.22 79.88,-387.22 79.88,-387.22 79.88,-381.22 85.88,-375.22 91.88,-375.22"/>
<text text-anchor="middle" x="223.62" y="-388.42" font-family="Times,serif" font-size="14.00">monitoring/configmap/grafana&#45;dashboard&#45;kubelet</text>
</g>
<!-- 1374434823808&#45;&gt;1374434822976 -->
<g id="edge23" class="edge">
<title>1374434823808&#45;&gt;1374434822976</title>
<path fill="none" stroke="black" d="M367.71,-382.56C509.66,-374.85 715.14,-372.3 780.25,-415.72 887.87,-487.49 922.63,-654 932.56,-721.75"/>
<polygon fill="black" stroke="black" points="929.05,-721.92 933.89,-731.34 935.99,-720.96 929.05,-721.92"/>
<text text-anchor="middle" x="622.75" y="-419.42" font-family="Times,serif" font-size="14.00">https://github.com/prometheus&#45;operator/kube&#45;prometheus</text>
</g>
<!-- 1374434824512 -->
<g id="node28" class="node">
<title>1374434824512</title>
<path fill="lightblue" stroke="lightblue" d="M79.88,-320.22C79.88,-320.22 367.38,-320.22 367.38,-320.22 373.38,-320.22 379.38,-326.22 379.38,-332.22 379.38,-332.22 379.38,-344.22 379.38,-344.22 379.38,-350.22 373.38,-356.22 367.38,-356.22 367.38,-356.22 79.88,-356.22 79.88,-356.22 73.87,-356.22 67.88,-350.22 67.88,-344.22 67.88,-344.22 67.88,-332.22 67.88,-332.22 67.88,-326.22 73.88,-320.22 79.88,-320.22"/>
<text text-anchor="middle" x="223.62" y="-333.42" font-family="Times,serif" font-size="14.00">monitoring/configmap/grafana&#45;dashboard&#45;prometheus</text>
</g>
<!-- 1374434824512&#45;&gt;1374434822976 -->
<g id="edge24" class="edge">
<title>1374434824512&#45;&gt;1374434822976</title>
<path fill="none" stroke="black" d="M379.84,-325.24C521.52,-316.63 718.04,-313.84 780.25,-357.72 903.67,-444.79 929.39,-645.74 934.73,-721.55"/>
<polygon fill="black" stroke="black" points="931.23,-721.73 935.35,-731.5 938.22,-721.3 931.23,-721.73"/>
<text text-anchor="middle" x="622.75" y="-361.42" font-family="Times,serif" font-size="14.00">https://github.com/prometheus&#45;operator/kube&#45;prometheus</text>
</g>
<!-- 1374434823872 -->
<g id="node29" class="node">
<title>1374434823872</title>
<path fill="lightblue" stroke="lightblue" d="M60.38,-265.22C60.38,-265.22 386.88,-265.22 386.88,-265.22 392.88,-265.22 398.88,-271.22 398.88,-277.22 398.88,-277.22 398.88,-289.22 398.88,-289.22 398.88,-295.22 392.88,-301.22 386.88,-301.22 386.88,-301.22 60.38,-301.22 60.38,-301.22 54.38,-301.22 48.38,-295.22 48.38,-289.22 48.38,-289.22 48.38,-277.22 48.38,-277.22 48.38,-271.22 54.38,-265.22 60.38,-265.22"/>
<text text-anchor="middle" x="223.62" y="-278.42" font-family="Times,serif" font-size="14.00">monitoring/configmap/grafana&#45;dashboard&#45;namespace&#45;by&#45;pod</text>
</g>
<!-- 1374434823872&#45;&gt;1374434822976 -->
<g id="edge25" class="edge">
<title>1374434823872&#45;&gt;1374434822976</title>
<path fill="none" stroke="black" d="M399.09,-267.47C539.09,-258.57 721.6,-256.59 780.25,-299.72 919.88,-402.39 935.41,-638.35 936.41,-721.53"/>
<polygon fill="black" stroke="black" points="932.91,-721.38 936.46,-731.37 939.91,-721.35 932.91,-721.38"/>
<text text-anchor="middle" x="622.75" y="-303.42" font-family="Times,serif" font-size="14.00">https://github.com/prometheus&#45;operator/kube&#45;prometheus</text>
</g>
<!-- 1374434824128 -->
<g id="node30" class="node">
<title>1374434824128</title>
<path fill="lightblue" stroke="lightblue" d="M75,-210.22C75,-210.22 372.25,-210.22 372.25,-210.22 378.25,-210.22 384.25,-216.22 384.25,-222.22 384.25,-222.22 384.25,-234.22 384.25,-234.22 384.25,-240.22 378.25,-246.22 372.25,-246.22 372.25,-246.22 75,-246.22 75,-246.22 69,-246.22 63,-240.22 63,-234.22 63,-234.22 63,-222.22 63,-222.22 63,-216.22 69,-210.22 75,-210.22"/>
<text text-anchor="middle" x="223.62" y="-223.42" font-family="Times,serif" font-size="14.00">monitoring/configmap/grafana&#45;dashboard&#45;node&#45;rsrc&#45;use</text>
</g>
<!-- 1374434824128&#45;&gt;1374434822976 -->
<g id="edge26" class="edge">
<title>1374434824128&#45;&gt;1374434822976</title>
<path fill="none" stroke="black" d="M384.62,-212.34C526.48,-201.78 720.22,-197.12 780.25,-242.72 859.47,-302.91 915.78,-622.13 931.61,-721.6"/>
<polygon fill="black" stroke="black" points="928.13,-722.04 933.14,-731.37 935.05,-720.95 928.13,-722.04"/>
<text text-anchor="middle" x="622.75" y="-246.42" font-family="Times,serif" font-size="14.00">https://github.com/prometheus&#45;operator/kube&#45;prometheus</text>
</g>
<!-- 1374434822912 -->
<g id="node31" class="node">
<title>1374434822912</title>
<path fill="lightblue" stroke="lightblue" d="M48.75,-155.22C48.75,-155.22 398.5,-155.22 398.5,-155.22 404.5,-155.22 410.5,-161.22 410.5,-167.22 410.5,-167.22 410.5,-179.22 410.5,-179.22 410.5,-185.22 404.5,-191.22 398.5,-191.22 398.5,-191.22 48.75,-191.22 48.75,-191.22 42.75,-191.22 36.75,-185.22 36.75,-179.22 36.75,-179.22 36.75,-167.22 36.75,-167.22 36.75,-161.22 42.75,-155.22 48.75,-155.22"/>
<text text-anchor="middle" x="223.62" y="-168.42" font-family="Times,serif" font-size="14.00">monitoring/configmap/grafana&#45;dashboard&#45;alertmanager&#45;overview</text>
</g>
<!-- 1374434822912&#45;&gt;1374434822976 -->
<g id="edge27" class="edge">
<title>1374434822912&#45;&gt;1374434822976</title>
<path fill="none" stroke="black" d="M405.67,-154.73C545.24,-144.53 723.65,-141.6 780.25,-185.72 867.74,-253.92 919.2,-615.58 932.6,-721.84"/>
<polygon fill="black" stroke="black" points="929.09,-721.96 933.79,-731.45 936.04,-721.1 929.09,-721.96"/>
<text text-anchor="middle" x="622.75" y="-189.42" font-family="Times,serif" font-size="14.00">https://github.com/prometheus&#45;operator/kube&#45;prometheus</text>
</g>
<!-- 1374434823360 -->
<g id="node32" class="node">
<title>1374434823360</title>
<path fill="lightblue" stroke="lightblue" d="M54.38,-100.22C54.38,-100.22 392.88,-100.22 392.88,-100.22 398.88,-100.22 404.88,-106.22 404.88,-112.22 404.88,-112.22 404.88,-124.22 404.88,-124.22 404.88,-130.22 398.88,-136.22 392.88,-136.22 392.88,-136.22 54.38,-136.22 54.38,-136.22 48.38,-136.22 42.38,-130.22 42.38,-124.22 42.38,-124.22 42.38,-112.22 42.38,-112.22 42.38,-106.22 48.38,-100.22 54.38,-100.22"/>
<text text-anchor="middle" x="223.62" y="-113.42" font-family="Times,serif" font-size="14.00">monitoring/configmap/grafana&#45;dashboard&#45;k8s&#45;resources&#45;cluster</text>
</g>
<!-- 1374434823360&#45;&gt;1374434822976 -->
<g id="edge28" class="edge">
<title>1374434823360&#45;&gt;1374434822976</title>
<path fill="none" stroke="black" d="M392.65,-99.75C534.09,-88.02 722.31,-82.61 780.25,-128.72 875.93,-204.86 922.13,-608.08 933.36,-721.51"/>
<polygon fill="black" stroke="black" points="929.85,-721.61 934.3,-731.22 936.82,-720.93 929.85,-721.61"/>
<text text-anchor="middle" x="622.75" y="-132.42" font-family="Times,serif" font-size="14.00">https://github.com/prometheus&#45;operator/kube&#45;prometheus</text>
</g>
<!-- 1374434823488 -->
<g id="node33" class="node">
<title>1374434823488</title>
<path fill="lightblue" stroke="lightblue" d="M42.38,-45.22C42.38,-45.22 404.88,-45.22 404.88,-45.22 410.88,-45.22 416.88,-51.22 416.88,-57.22 416.88,-57.22 416.88,-69.22 416.88,-69.22 416.88,-75.22 410.88,-81.22 404.88,-81.22 404.88,-81.22 42.37,-81.22 42.37,-81.22 36.37,-81.22 30.38,-75.22 30.38,-69.22 30.38,-69.22 30.38,-57.22 30.38,-57.22 30.38,-51.22 36.38,-45.22 42.38,-45.22"/>
<text text-anchor="middle" x="223.62" y="-58.42" font-family="Times,serif" font-size="14.00">monitoring/configmap/grafana&#45;dashboard&#45;k8s&#45;resources&#45;namespace</text>
</g>
<!-- 1374434823488&#45;&gt;1374434822976 -->
<g id="edge29" class="edge">
<title>1374434823488&#45;&gt;1374434822976</title>
<path fill="none" stroke="black" d="M277.66,-44.8C385.65,-10.99 633.26,47.22 780.25,-71.72 884.29,-155.91 924.9,-601.75 934.03,-721.56"/>
<polygon fill="black" stroke="black" points="930.52,-721.5 934.75,-731.21 937.5,-720.98 930.52,-721.5"/>
<text text-anchor="middle" x="622.75" y="-75.42" font-family="Times,serif" font-size="14.00">https://github.com/prometheus&#45;operator/kube&#45;prometheus</text>
</g>
</g>
</svg>
