<?xml version="1.0" encoding="UTF-8" standalone="no"?>
<!DOCTYPE svg PUBLIC "-//W3C//DTD SVG 1.1//EN"
 "http://www.w3.org/Graphics/SVG/1.1/DTD/svg11.dtd">
<!-- Generated by graphviz version 12.0.0 (20240704.0754)
 -->
<!-- Pages: 1 -->
<svg width="1020pt" height="265pt"
 viewBox="0.00 0.00 1019.50 265.00" xmlns="http://www.w3.org/2000/svg" xmlns:xlink="http://www.w3.org/1999/xlink">
<g id="graph0" class="graph" transform="scale(1 1) rotate(0) translate(4 261)">
<polygon fill="white" stroke="none" points="-4,4 -4,-261 1015.5,-261 1015.5,4 -4,4"/>
<!-- 1374427654976 -->
<g id="node1" class="node">
<title>1374427654976</title>
<path fill="lightblue" stroke="lightblue" d="M696.25,-28.5C696.25,-28.5 977.75,-28.5 977.75,-28.5 983.75,-28.5 989.75,-34.5 989.75,-40.5 989.75,-40.5 989.75,-52.5 989.75,-52.5 989.75,-58.5 983.75,-64.5 977.75,-64.5 977.75,-64.5 696.25,-64.5 696.25,-64.5 690.25,-64.5 684.25,-58.5 684.25,-52.5 684.25,-52.5 684.25,-40.5 684.25,-40.5 684.25,-34.5 690.25,-28.5 696.25,-28.5"/>
<text text-anchor="middle" x="837" y="-41.7" font-family="Times,serif" font-size="14.00">manifests/prometheus&#45;roleSpecificNamespaces.yaml</text>
</g>
<!-- 1374427655040 -->
<g id="node2" class="node">
<title>1374427655040</title>
<path fill="lightblue" stroke="lightblue" d="M67.5,-55.5C67.5,-55.5 244,-55.5 244,-55.5 250,-55.5 256,-61.5 256,-67.5 256,-67.5 256,-79.5 256,-79.5 256,-85.5 250,-91.5 244,-91.5 244,-91.5 67.5,-91.5 67.5,-91.5 61.5,-91.5 55.5,-85.5 55.5,-79.5 55.5,-79.5 55.5,-67.5 55.5,-67.5 55.5,-61.5 61.5,-55.5 67.5,-55.5"/>
<text text-anchor="middle" x="155.75" y="-68.7" font-family="Times,serif" font-size="14.00">kube&#45;system/role/prometheus&#45;k8s</text>
</g>
<!-- 1374427655040&#45;&gt;1374427654976 -->
<g id="edge1" class="edge">
<title>1374427655040&#45;&gt;1374427654976</title>
<path fill="none" stroke="black" d="M256.25,-69.55C365.54,-65.2 542.77,-58.16 672.54,-53"/>
<polygon fill="black" stroke="black" points="672.4,-56.51 682.25,-52.61 672.12,-49.51 672.4,-56.51"/>
<text text-anchor="middle" x="487" y="-69.7" font-family="Times,serif" font-size="14.00">https://github.com/prometheus&#45;operator/kube&#45;prometheus</text>
</g>
<!-- 1374427655104 -->
<g id="node3" class="node">
<title>1374427655104</title>
<path fill="lightblue" stroke="lightblue" d="M62.62,-165.5C62.62,-165.5 248.88,-165.5 248.88,-165.5 254.88,-165.5 260.88,-171.5 260.88,-177.5 260.88,-177.5 260.88,-189.5 260.88,-189.5 260.88,-195.5 254.88,-201.5 248.88,-201.5 248.88,-201.5 62.62,-201.5 62.62,-201.5 56.62,-201.5 50.62,-195.5 50.62,-189.5 50.62,-189.5 50.62,-177.5 50.62,-177.5 50.62,-171.5 56.62,-165.5 62.62,-165.5"/>
<text text-anchor="middle" x="155.75" y="-178.7" font-family="Times,serif" font-size="14.00">default/rolebinding/prometheus&#45;k8s</text>
</g>
<!-- 1374427655296 -->
<g id="node4" class="node">
<title>1374427655296</title>
<path fill="lightblue" stroke="lightblue" d="M674.5,-137.5C674.5,-137.5 999.5,-137.5 999.5,-137.5 1005.5,-137.5 1011.5,-143.5 1011.5,-149.5 1011.5,-149.5 1011.5,-161.5 1011.5,-161.5 1011.5,-167.5 1005.5,-173.5 999.5,-173.5 999.5,-173.5 674.5,-173.5 674.5,-173.5 668.5,-173.5 662.5,-167.5 662.5,-161.5 662.5,-161.5 662.5,-149.5 662.5,-149.5 662.5,-143.5 668.5,-137.5 674.5,-137.5"/>
<text text-anchor="middle" x="837" y="-150.7" font-family="Times,serif" font-size="14.00">manifests/prometheus&#45;roleBindingSpecificNamespaces.yaml</text>
</g>
<!-- 1374427655104&#45;&gt;1374427655296 -->
<g id="edge2" class="edge">
<title>1374427655104&#45;&gt;1374427655296</title>
<path fill="none" stroke="black" d="M261.02,-179.2C364.63,-174.93 525.72,-168.29 651.06,-163.12"/>
<polygon fill="black" stroke="black" points="650.95,-166.63 660.8,-162.72 650.66,-159.64 650.95,-166.63"/>
<text text-anchor="middle" x="487" y="-178.7" font-family="Times,serif" font-size="14.00">https://github.com/prometheus&#45;operator/kube&#45;prometheus</text>
</g>
<!-- 1374427655360 -->
<g id="node5" class="node">
<title>1374427655360</title>
<path fill="lightblue" stroke="lightblue" d="M46.88,-110.5C46.88,-110.5 264.62,-110.5 264.62,-110.5 270.62,-110.5 276.62,-116.5 276.62,-122.5 276.62,-122.5 276.62,-134.5 276.62,-134.5 276.62,-140.5 270.62,-146.5 264.62,-146.5 264.62,-146.5 46.87,-146.5 46.87,-146.5 40.88,-146.5 34.88,-140.5 34.88,-134.5 34.88,-134.5 34.88,-122.5 34.88,-122.5 34.88,-116.5 40.88,-110.5 46.88,-110.5"/>
<text text-anchor="middle" x="155.75" y="-123.7" font-family="Times,serif" font-size="14.00">kube&#45;system/rolebinding/prometheus&#45;k8s</text>
</g>
<!-- 1374427655360&#45;&gt;1374427655296 -->
<g id="edge3" class="edge">
<title>1374427655360&#45;&gt;1374427655296</title>
<path fill="none" stroke="black" d="M277.04,-131.87C375.78,-134.8 519.23,-139.45 644.5,-145 646.59,-145.09 648.7,-145.19 650.81,-145.28"/>
<polygon fill="black" stroke="black" points="650.56,-148.78 660.71,-145.74 650.88,-141.78 650.56,-148.78"/>
<text text-anchor="middle" x="487" y="-147.7" font-family="Times,serif" font-size="14.00">https://github.com/prometheus&#45;operator/kube&#45;prometheus</text>
</g>
<!-- 1374427655552 -->
<g id="node6" class="node">
<title>1374427655552</title>
<path fill="lightblue" stroke="lightblue" d="M12,-220.5C12,-220.5 299.5,-220.5 299.5,-220.5 305.5,-220.5 311.5,-226.5 311.5,-232.5 311.5,-232.5 311.5,-244.5 311.5,-244.5 311.5,-250.5 305.5,-256.5 299.5,-256.5 299.5,-256.5 12,-256.5 12,-256.5 6,-256.5 0,-250.5 0,-244.5 0,-244.5 0,-232.5 0,-232.5 0,-226.5 6,-220.5 12,-220.5"/>
<text text-anchor="middle" x="155.75" y="-233.7" font-family="Times,serif" font-size="14.00">kube&#45;system/rolebinding/resource&#45;metrics&#45;auth&#45;reader</text>
</g>
<!-- 1374427655616 -->
<g id="node7" class="node">
<title>1374427655616</title>
<path fill="lightblue" stroke="lightblue" d="M676.75,-220.5C676.75,-220.5 997.25,-220.5 997.25,-220.5 1003.25,-220.5 1009.25,-226.5 1009.25,-232.5 1009.25,-232.5 1009.25,-244.5 1009.25,-244.5 1009.25,-250.5 1003.25,-256.5 997.25,-256.5 997.25,-256.5 676.75,-256.5 676.75,-256.5 670.75,-256.5 664.75,-250.5 664.75,-244.5 664.75,-244.5 664.75,-232.5 664.75,-232.5 664.75,-226.5 670.75,-220.5 676.75,-220.5"/>
<text text-anchor="middle" x="837" y="-233.7" font-family="Times,serif" font-size="14.00">manifests/prometheusAdapter&#45;roleBindingAuthReader.yaml</text>
</g>
<!-- 1374427655552&#45;&gt;1374427655616 -->
<g id="edge4" class="edge">
<title>1374427655552&#45;&gt;1374427655616</title>
<path fill="none" stroke="black" d="M311.73,-238.5C413.27,-238.5 546.44,-238.5 653.16,-238.5"/>
<polygon fill="black" stroke="black" points="652.87,-242 662.87,-238.5 652.87,-235 652.87,-242"/>
<text text-anchor="middle" x="487" y="-241.7" font-family="Times,serif" font-size="14.00">https://github.com/prometheus&#45;operator/kube&#45;prometheus</text>
</g>
<!-- 1374427654848 -->
<g id="node8" class="node">
<title>1374427654848</title>
<path fill="lightblue" stroke="lightblue" d="M83.25,-0.5C83.25,-0.5 228.25,-0.5 228.25,-0.5 234.25,-0.5 240.25,-6.5 240.25,-12.5 240.25,-12.5 240.25,-24.5 240.25,-24.5 240.25,-30.5 234.25,-36.5 228.25,-36.5 228.25,-36.5 83.25,-36.5 83.25,-36.5 77.25,-36.5 71.25,-30.5 71.25,-24.5 71.25,-24.5 71.25,-12.5 71.25,-12.5 71.25,-6.5 77.25,-0.5 83.25,-0.5"/>
<text text-anchor="middle" x="155.75" y="-13.7" font-family="Times,serif" font-size="14.00">default/role/prometheus&#45;k8s</text>
</g>
<!-- 1374427654848&#45;&gt;1374427654976 -->
<g id="edge5" class="edge">
<title>1374427654848&#45;&gt;1374427654976</title>
<path fill="none" stroke="black" d="M240.5,-20.31C337.69,-22.61 502.76,-27.12 644.5,-34 653.71,-34.45 663.16,-34.94 672.71,-35.47"/>
<polygon fill="black" stroke="black" points="672.24,-38.95 682.42,-36.02 672.64,-31.96 672.24,-38.95"/>
<text text-anchor="middle" x="487" y="-37.7" font-family="Times,serif" font-size="14.00">https://github.com/prometheus&#45;operator/kube&#45;prometheus</text>
</g>
</g>
</svg>
